<svg version="1.1" id="Layer_1" xmlns="http://www.w3.org/2000/svg" xmlns:xlink="http://www.w3.org/1999/xlink" x="0px" y="0px"
	 width="100%" viewBox="0 0 257 284" enable-background="new 0 0 257 284" xml:space="preserve">
<path fill="#FFFFFF" opacity="1.000000" stroke="none" 
	d="
M212.000000,285.000000 
	C141.754410,285.000000 71.508820,285.000000 1.000000,285.000000 
	C1.000000,238.646103 1.000000,192.291718 1.272624,145.464310 
	C1.726712,144.980743 1.908178,144.970184 2.549966,144.981720 
	C18.677662,145.078964 34.345036,145.154114 50.114616,145.393219 
	C50.385918,145.758560 50.593018,145.906815 50.878872,146.468719 
	C50.934299,190.255905 50.931519,233.576401 51.021282,276.896698 
	C51.025280,278.826813 51.871174,280.755188 52.506195,282.718109 
	C52.687469,282.751862 52.989670,282.963226 53.132683,283.200562 
	C53.855968,283.274719 54.436237,283.111603 55.451057,282.851624 
	C58.252495,282.832672 60.619385,282.910614 63.132294,283.219910 
	C63.857018,283.295929 64.435715,283.140564 65.473579,282.886169 
	C76.627991,282.746674 87.323242,282.706238 98.332626,282.815521 
	C99.103798,283.043365 99.560829,283.121490 100.194084,283.395966 
	C100.899200,283.355713 101.428085,283.119110 101.998650,282.575256 
	C102.138672,281.866547 102.237015,281.465088 102.569458,280.719910 
	C102.881233,278.385345 103.024323,276.394592 103.026924,274.403687 
	C103.082893,231.602554 103.123154,188.801437 103.334457,145.908936 
	C103.716522,145.663574 103.878113,145.466537 104.452553,145.163116 
	C120.257881,145.141205 135.597900,145.182648 150.953918,145.678406 
	C150.978989,189.890656 150.972137,233.648621 151.053879,277.406433 
	C151.057236,279.203278 151.892776,280.998535 152.516846,282.782959 
	C152.693069,282.771332 152.997849,282.949890 153.078491,283.129639 
	C153.442596,283.201324 153.726059,283.093231 154.400909,282.893768 
	C155.856216,282.863953 156.920135,282.925446 158.075165,283.161194 
	C158.449203,283.213409 158.732117,283.091370 159.474228,282.870544 
	C171.279419,282.843964 182.625427,282.916199 194.066772,283.163177 
	C194.451447,283.215942 194.740738,283.093903 195.439972,282.873230 
	C197.529617,282.728851 199.209290,282.683105 201.143890,282.781036 
	C201.593262,282.933990 201.787704,282.943268 202.147675,283.190247 
	C202.873550,282.950745 203.433899,282.473541 203.996933,281.527893 
	C204.017532,235.782303 204.035431,190.505142 204.461914,145.164551 
	C206.247040,145.143143 207.623566,145.185150 209.000031,145.681580 
	C210.416138,192.414993 205.818954,238.823929 212.000000,285.000000 
z"/>
<path fill="#FFFFFF" opacity="1.000000" stroke="none" 
	d="
M212.468658,285.000000 
	C205.818954,238.823929 210.416138,192.414993 209.464386,145.610931 
	C223.967270,145.132370 238.005753,145.178848 252.335693,145.462723 
	C254.418106,145.800079 256.209045,145.900040 258.000000,146.000000 
	C258.000000,192.223511 258.000000,238.447021 258.000000,285.000000 
	C242.980713,285.000000 227.959015,285.000000 212.468658,285.000000 
z"/>
<path fill="#FFFFFF" opacity="1.000000" stroke="none" 
	d="
M57.000000,1.000000 
	C70.020897,1.000000 83.041786,1.000000 96.574966,1.381975 
	C97.235168,3.483224 97.838875,5.318516 97.436874,6.897811 
	C96.578537,10.269893 98.220558,10.975987 100.964203,11.334544 
	C100.971550,12.110969 100.966743,12.554750 100.580261,13.005865 
	C99.152786,14.135370 98.106995,15.257543 97.061195,16.379715 
	C98.360146,17.253670 99.659103,18.127626 100.968033,19.470032 
	C100.981842,58.375946 100.987350,96.813416 100.988068,135.250885 
	C100.988205,142.627426 100.770287,142.918991 93.082253,142.967392 
	C81.268623,143.041779 69.454117,142.998154 57.640118,142.961014 
	C56.376751,142.957031 55.114296,142.663177 53.057247,142.403580 
	C53.057247,98.738678 53.057247,55.370430 53.433487,11.995945 
	C57.006569,11.431995 58.490818,9.953286 57.379707,6.438654 
	C56.847157,4.754115 57.101845,2.820700 57.000000,1.000000 
z"/>
<path fill="#FFFFFF" opacity="1.000000" stroke="none" 
	d="
M161.000000,1.000000 
	C171.687561,1.000000 182.375122,1.000000 193.522552,1.410586 
	C193.982422,6.804582 193.982422,11.787992 193.982422,17.132896 
	C197.677521,16.976923 199.108398,18.983572 199.088562,23.241598 
	C198.929764,57.348484 199.011688,91.456451 198.955856,125.563988 
	C198.953613,126.932060 198.493759,129.402344 197.935699,129.495605 
	C192.475433,130.408096 194.520782,135.105270 193.474304,137.128281 
	C195.258316,139.433975 196.628555,141.204910 197.530304,142.983368 
	C184.375214,142.976303 171.688629,142.961731 159.002563,142.539429 
	C159.245163,138.940384 159.487198,135.749054 159.825943,131.282806 
	C169.867630,131.282806 180.099350,131.282806 190.331070,131.282806 
	C190.353256,130.717407 190.375458,130.151993 190.397644,129.586594 
	C189.552521,129.392532 188.708603,129.036560 187.862061,129.030136 
	C181.372498,128.981003 174.879837,129.114655 168.393204,128.967606 
	C160.810272,128.795685 160.000931,127.903320 160.000641,120.747276 
	C159.999222,86.633629 160.035873,52.519852 159.911270,18.406656 
	C159.903748,16.349394 158.443115,14.334088 157.992798,12.227818 
	C157.729874,10.998146 157.661163,8.843182 158.313202,8.452179 
	C161.401413,6.600336 161.071747,3.815369 161.000000,1.000000 
z"/>
<path fill="#FEFFFE" opacity="1.000000" stroke="none" 
	d="
M197.998779,142.975845 
	C196.628555,141.204910 195.258316,139.433975 193.474304,137.128281 
	C194.520782,135.105270 192.475433,130.408096 197.935699,129.495605 
	C198.493759,129.402344 198.953613,126.932060 198.955856,125.563988 
	C199.011688,91.456451 198.929764,57.348484 199.088562,23.241598 
	C199.108398,18.983572 197.677521,16.976923 193.982422,17.132896 
	C193.982422,11.787992 193.982422,6.804582 193.991211,1.410586 
	C215.288589,1.000000 236.577164,1.000000 258.000000,1.000000 
	C258.000000,49.020817 258.000000,97.041748 258.000000,145.531342 
	C256.209045,145.900040 254.418106,145.800079 252.403824,145.281189 
	C252.180481,144.862244 252.202271,144.475784 252.423706,144.386948 
	C252.645126,144.298111 253.026382,144.011505 253.327332,143.719421 
	C253.757233,142.447769 253.998611,141.468246 253.998978,140.488647 
	C254.015228,97.234505 254.016602,53.980347 253.976242,10.726237 
	C253.975052,9.458982 253.506622,8.192161 253.186203,6.709343 
	C253.116364,6.493548 252.972595,6.063309 252.697449,5.748035 
	C236.496185,5.311499 220.570129,5.180044 204.643799,5.113337 
	C204.112030,5.111110 203.577499,5.763778 203.024658,6.350025 
	C203.005051,6.588871 203.113297,7.055787 203.059021,6.998105 
	C203.004730,6.940424 202.848434,6.966273 202.561279,7.009201 
	C201.959839,7.370109 201.645538,7.688090 201.331253,8.006075 
	C201.797241,8.367115 202.263229,8.728152 202.781189,9.457872 
	C202.908585,10.564639 202.984009,11.302724 202.958679,12.264760 
	C202.857925,12.488711 202.726685,12.961996 202.486359,13.300451 
	C202.162796,15.291939 202.008072,16.944927 202.007034,18.598011 
	C201.992050,42.703266 202.111145,66.809273 201.954300,90.913521 
	C201.864822,104.667679 201.259689,118.417862 201.055023,132.172348 
	C201.006531,135.430557 201.634171,138.698822 201.610321,142.008362 
	C200.179489,142.361450 199.089142,142.668655 197.998779,142.975845 
z"/>
<path fill="#FEFFFE" opacity="1.000000" stroke="none" 
	d="
M160.532394,1.000000 
	C161.071747,3.815369 161.401413,6.600336 158.313202,8.452179 
	C157.661163,8.843182 157.729874,10.998146 157.992798,12.227818 
	C158.443115,14.334088 159.903748,16.349394 159.911270,18.406656 
	C160.035873,52.519852 159.999222,86.633629 160.000641,120.747276 
	C160.000931,127.903320 160.810272,128.795685 168.393204,128.967606 
	C174.879837,129.114655 181.372498,128.981003 187.862061,129.030136 
	C188.708603,129.036560 189.552521,129.392532 190.397644,129.586594 
	C190.375458,130.151993 190.353256,130.717407 190.331070,131.282806 
	C180.099350,131.282806 169.867630,131.282806 159.825943,131.282806 
	C159.487198,135.749054 159.245163,138.940384 158.673187,142.553741 
	C157.547699,143.246872 156.752151,143.517975 155.633514,143.844269 
	C154.875748,143.865524 154.441025,143.831589 153.908844,143.626923 
	C153.646347,143.245667 153.441345,143.086609 153.143417,142.514648 
	C153.070312,98.817665 153.063416,55.585068 152.985687,12.352603 
	C152.982300,10.466831 152.329208,8.582230 151.874451,6.333624 
	C148.846329,5.635690 145.922516,5.301215 143.032181,4.624210 
	C143.377090,3.187786 143.688538,2.093893 144.000000,0.999999 
	C149.354935,1.000000 154.709854,1.000000 160.532394,1.000000 
z"/>
<path fill="#FEFFFE" opacity="1.000000" stroke="none" 
	d="
M56.531342,1.000000 
	C57.101845,2.820700 56.847157,4.754115 57.379707,6.438654 
	C58.490818,9.953286 57.006569,11.431995 53.417473,11.637209 
	C52.747223,10.177573 52.469223,9.070436 52.122143,7.749699 
	C52.053062,7.536099 51.971638,7.094559 51.984833,6.745141 
	C51.999245,5.929510 52.000458,5.463297 51.952217,4.663545 
	C50.931713,4.544634 49.960667,4.759264 48.521645,4.979413 
	C32.369114,4.989955 16.684557,4.994978 1.000000,5.000000 
	C1.000000,3.676467 1.000000,2.352933 1.000000,1.000000 
	C19.354219,1.000000 37.708450,1.000000 56.531342,1.000000 
z"/>
<path fill="#68C5FF" opacity="1.000000" stroke="none" 
	d="
M1.000000,144.000000 
	C1.000000,98.645775 1.000000,53.291542 1.264491,7.496228 
	C1.703870,7.084183 1.878758,7.113226 2.029162,7.599487 
	C2.003444,17.039053 1.992018,26.021414 2.002761,35.003746 
	C2.046128,71.264023 2.096329,107.524300 2.072602,143.869873 
	C2.001198,143.955170 1.863720,144.130096 1.649775,144.084396 
	C1.435830,144.038696 1.000000,144.000000 1.000000,144.000000 
z"/>
<path fill="#FFFFFF" opacity="1.000000" stroke="none" 
	d="
M143.531342,0.999999 
	C143.688538,2.093893 143.377090,3.187786 142.563736,4.634140 
	C133.041702,4.979527 124.021591,4.972456 115.001099,4.568852 
	C115.000488,3.114879 115.000244,2.057440 115.000000,1.000000 
	C124.354225,1.000000 133.708450,1.000000 143.531342,0.999999 
z"/>
<path fill="#FEFFFE" opacity="1.000000" stroke="none" 
	d="
M114.532059,1.000000 
	C115.000244,2.057440 115.000488,3.114879 114.540039,4.580337 
	C110.378670,4.986060 106.678001,4.983765 102.658882,4.844583 
	C101.331223,4.734411 100.322014,4.761127 99.312805,4.787843 
	C99.863663,5.524482 100.414520,6.261120 100.971802,7.398131 
	C100.969498,8.866303 100.960785,9.934102 100.952065,11.001902 
	C98.220558,10.975987 96.578537,10.269893 97.436874,6.897811 
	C97.838875,5.318516 97.235168,3.483224 97.043625,1.381975 
	C102.688042,1.000000 108.376083,1.000000 114.532059,1.000000 
z"/>
<path fill="#DDFFFF" opacity="1.000000" stroke="none" 
	d="
M2.053645,7.142269 
	C1.878758,7.113226 1.703870,7.084183 1.264491,7.027571 
	C1.000000,6.555555 1.000000,6.111111 1.000000,5.333333 
	C16.684557,4.994978 32.369114,4.989955 48.898247,4.987915 
	C50.495773,4.992958 51.248722,4.995021 52.001671,4.997084 
	C52.000458,5.463297 51.999245,5.929510 51.661518,6.708948 
	C50.894714,6.975419 50.464420,6.928666 49.783852,6.532325 
	C35.356041,6.122402 21.178514,6.049039 7.000950,6.040976 
	C6.306832,6.040580 5.612390,6.611563 4.601339,6.956045 
	C3.864469,7.055175 3.444357,7.114740 2.783530,7.107680 
	C2.542815,7.041054 2.053645,7.142269 2.053645,7.142269 
z"/>
<path fill="#EDFFFF" opacity="1.000000" stroke="none" 
	d="
M1.000000,144.250000 
	C1.000000,144.000000 1.435830,144.038696 1.720891,144.287903 
	C2.005951,144.537125 2.089643,144.959625 2.089643,144.959625 
	C1.908178,144.970184 1.726712,144.980743 1.272624,144.995651 
	C1.000000,145.000000 1.000000,144.500000 1.000000,144.250000 
z"/>
<path fill="#219F92" opacity="1.000000" stroke="none" 
	d="
M102.335342,281.063629 
	C102.237015,281.465088 102.138672,281.866547 101.673981,282.623413 
	C100.877708,283.052399 100.447784,283.126007 100.017860,283.199615 
	C99.560829,283.121490 99.103798,283.043365 98.326874,282.540710 
	C98.007477,281.749725 98.007973,281.383362 98.382683,280.938293 
	C99.502777,278.098022 100.890022,275.338379 100.898460,272.574554 
	C101.027184,230.392975 100.975754,188.210831 100.973434,145.797638 
	C100.980515,145.566467 100.973076,145.104660 101.184296,145.092316 
	C101.395508,145.079987 101.817383,145.112762 101.895393,145.109650 
	C101.973404,145.106537 102.064728,144.979874 102.038071,145.449097 
	C102.011375,189.482574 102.008141,233.046814 102.024940,276.611053 
	C102.025513,278.095276 102.227333,279.579437 102.335342,281.063629 
z"/>
<path fill="#DDFFFF" opacity="1.000000" stroke="none" 
	d="
M152.340607,282.794556 
	C151.892776,280.998535 151.057236,279.203278 151.053879,277.406433 
	C150.972137,233.648621 150.978989,189.890656 151.185150,145.622055 
	C151.400375,145.111389 151.875412,145.113205 151.924011,145.571060 
	C151.981735,189.228348 151.985016,232.427765 152.017410,275.627197 
	C152.019012,277.769379 152.273880,279.911346 152.391388,282.238525 
	C152.371948,282.423645 152.340607,282.794556 152.340607,282.794556 
z"/>
<path fill="#A3F2EC" opacity="1.000000" stroke="none" 
	d="
M52.324917,282.684357 
	C51.871174,280.755188 51.025280,278.826813 51.021282,276.896698 
	C50.931519,233.576401 50.934299,190.255905 50.915184,146.251694 
	C50.910755,145.567932 50.874916,145.129288 51.110954,145.103760 
	C51.346992,145.078232 51.821644,145.090988 51.905251,145.099152 
	C51.988853,145.107300 52.111748,144.995636 52.070816,145.462982 
	C52.016785,189.823395 51.998943,233.716446 52.011108,277.609497 
	C52.011517,279.080261 52.314987,280.550964 52.452835,282.190491 
	C52.428478,282.359314 52.324917,282.684357 52.324917,282.684357 
z"/>
<path fill="#E2FFFF" opacity="1.000000" stroke="none" 
	d="
M204.053345,145.227966 
	C204.035431,190.505142 204.017532,235.782303 203.721252,281.520203 
	C203.259186,281.971222 203.075531,281.961456 202.939163,281.488647 
	C202.977676,235.685059 202.968903,190.344559 202.994934,145.073059 
	C203.029739,145.142059 203.184250,145.139328 203.404724,145.130051 
	C203.625214,145.120773 204.053345,145.227966 204.053345,145.227966 
z"/>
<path fill="#A3F2EC" opacity="1.000000" stroke="none" 
	d="
M102.569458,280.719910 
	C102.227333,279.579437 102.025513,278.095276 102.024940,276.611053 
	C102.008141,233.046814 102.011375,189.482574 102.302940,145.482391 
	C102.770149,145.075546 102.945824,145.104630 103.106964,145.351700 
	C103.092438,145.569687 103.166443,146.000305 103.166443,146.000305 
	C103.123154,188.801437 103.082893,231.602554 103.026924,274.403687 
	C103.024323,276.394592 102.881233,278.385345 102.569458,280.719910 
z"/>
<path fill="#19A19E" opacity="1.000000" stroke="none" 
	d="
M152.516846,282.782959 
	C152.340607,282.794556 152.371948,282.423645 152.559113,282.097717 
	C152.908676,281.526001 153.033401,281.262329 153.347595,280.983002 
	C153.574692,280.985138 154.030914,280.970764 154.497559,280.978943 
	C170.633987,280.982849 186.303741,280.978577 201.977722,281.223511 
	C201.981934,281.472748 201.987305,281.971222 202.041809,281.985962 
	C202.096298,282.000702 202.090866,282.113464 201.855896,282.104553 
	C201.287491,282.155365 201.043518,282.335907 200.888977,282.637329 
	C199.209290,282.683105 197.529617,282.728851 195.535675,282.799438 
	C195.221420,282.824249 195.120483,282.604645 194.992096,282.463562 
	C194.535904,282.422302 194.208069,282.522095 193.830902,282.731476 
	C193.781570,282.841034 193.971420,282.988403 193.971420,282.988403 
	C182.625427,282.916199 171.279419,282.843964 159.215012,282.793762 
	C158.325760,282.872803 158.154907,282.929871 157.984039,282.986938 
	C156.920135,282.925446 155.856216,282.863953 154.150803,282.802856 
	C153.338806,282.852142 153.168335,282.901031 152.997849,282.949890 
	C152.997849,282.949890 152.693069,282.771332 152.516846,282.782959 
z"/>
<path fill="#19A19E" opacity="1.000000" stroke="none" 
	d="
M52.506195,282.718109 
	C52.324917,282.684357 52.428478,282.359314 52.691628,282.146362 
	C53.304348,281.620239 53.653919,281.307068 54.471931,280.993744 
	C69.296402,281.001373 83.652443,281.009155 98.008476,281.016968 
	C98.007973,281.383362 98.007477,281.749725 98.012726,282.390930 
	C87.323242,282.706238 76.627991,282.746674 65.140610,282.782471 
	C63.894409,282.848083 63.440342,282.918335 62.986275,282.988586 
	C60.619385,282.910614 58.252495,282.832672 55.117592,282.750671 
	C53.896275,282.818817 53.442974,282.891022 52.989670,282.963226 
	C52.989670,282.963226 52.687469,282.751862 52.506195,282.718109 
z"/>
<path fill="#7AC0EE" opacity="1.000000" stroke="none" 
	d="
M51.821644,145.090988 
	C51.821644,145.090988 51.346992,145.078232 50.891830,145.095749 
	C50.436668,145.113266 50.012409,145.229248 50.012409,145.229248 
	C34.345036,145.154114 18.677662,145.078964 2.549966,144.981720 
	C2.089643,144.959625 2.005951,144.537125 1.934835,144.333618 
	C1.863720,144.130096 2.001198,143.955170 2.526640,143.942505 
	C17.465570,143.953644 31.879126,144.000824 46.292416,143.957947 
	C47.476299,143.954422 48.658363,143.338440 49.904976,142.761536 
	C49.999207,142.349701 50.029732,142.183380 50.307671,142.083649 
	C50.994801,142.398163 51.434528,142.646072 51.936256,143.143707 
	C52.009068,143.564636 52.019871,143.735840 51.992367,144.205475 
	C51.909920,144.699615 51.865784,144.895294 51.821644,145.090988 
z"/>
<path fill="#7AC0EE" opacity="1.000000" stroke="none" 
	d="
M103.121498,145.133713 
	C102.945824,145.104630 102.770149,145.075546 102.329605,145.013168 
	C102.064728,144.979874 101.973404,145.106537 101.945755,144.812347 
	C101.928963,144.317917 101.939827,144.117661 101.975662,143.937637 
	C102.000641,143.957855 101.951759,143.999557 102.375061,144.001465 
	C104.198662,143.964203 105.598969,143.925018 107.466499,143.924271 
	C122.622749,143.972916 137.311768,143.983139 152.000153,143.996658 
	C151.999542,143.999954 151.993820,143.990982 151.973434,144.272507 
	C151.927170,144.740417 151.901291,144.926819 151.875412,145.113205 
	C151.875412,145.113205 151.400375,145.111389 151.169144,145.167725 
	C135.597900,145.182648 120.257881,145.141205 104.239738,145.105896 
	C103.561607,145.112030 103.121498,145.133713 103.121498,145.133713 
z"/>
<path fill="#7AC0EE" opacity="1.000000" stroke="none" 
	d="
M204.461929,145.164551 
	C204.053345,145.227966 203.625214,145.120773 203.343277,144.832001 
	C203.053711,144.340790 203.046082,144.138367 203.503983,143.963593 
	C209.114899,143.994003 214.260834,143.949585 219.405548,144.009262 
	C230.338120,144.136078 241.270065,144.317032 252.202271,144.475784 
	C252.202271,144.475784 252.180481,144.862244 252.112350,145.043793 
	C238.005753,145.178848 223.967270,145.132370 209.464447,145.156525 
	C207.623566,145.185150 206.247040,145.143143 204.461929,145.164551 
z"/>
<path fill="#EDFFFF" opacity="1.000000" stroke="none" 
	d="
M202.891876,281.951721 
	C203.075531,281.961456 203.259186,281.971222 203.718536,281.988647 
	C203.433899,282.473541 202.873550,282.950745 202.162079,282.978943 
	C202.010941,282.529938 202.090866,282.113464 202.090866,282.113464 
	C202.090866,282.113464 202.096298,282.000702 202.268341,282.000366 
	C202.440399,282.000061 202.891876,281.951721 202.891876,281.951721 
z"/>
<path fill="#EDFFFF" opacity="1.000000" stroke="none" 
	d="
M100.194084,283.395966 
	C100.447784,283.126007 100.877708,283.052399 101.632301,282.930664 
	C101.428085,283.119110 100.899200,283.355713 100.194084,283.395966 
z"/>
<path fill="#EDFFFF" opacity="1.000000" stroke="none" 
	d="
M63.132298,283.219940 
	C63.440342,282.918335 63.894409,282.848083 64.681442,282.881531 
	C64.435715,283.140564 63.857018,283.295929 63.132298,283.219940 
z"/>
<path fill="#EDFFFF" opacity="1.000000" stroke="none" 
	d="
M53.132683,283.200562 
	C53.442974,282.891022 53.896275,282.818817 54.683044,282.847534 
	C54.436237,283.111603 53.855968,283.274719 53.132683,283.200562 
z"/>
<path fill="#EDFFFF" opacity="1.000000" stroke="none" 
	d="
M195.125732,282.898071 
	C194.740738,283.093903 194.451447,283.215942 194.066772,283.163177 
	C193.971420,282.988403 193.781570,282.841034 194.142426,282.825562 
	C194.709030,282.741608 194.914764,282.673126 195.120483,282.604645 
	C195.120483,282.604645 195.221420,282.824249 195.125732,282.898071 
z"/>
<path fill="#EDFFFF" opacity="1.000000" stroke="none" 
	d="
M103.106964,145.351700 
	C103.121498,145.133713 103.561607,145.112030 103.774422,145.169250 
	C103.878113,145.466537 103.716522,145.663574 103.334457,145.908936 
	C103.166443,146.000305 103.092438,145.569687 103.106964,145.351700 
z"/>
<path fill="#EDFFFF" opacity="1.000000" stroke="none" 
	d="
M158.075165,283.161194 
	C158.154907,282.929871 158.325760,282.872803 158.755814,282.892517 
	C158.732117,283.091370 158.449203,283.213409 158.075165,283.161194 
z"/>
<path fill="#EDFFFF" opacity="1.000000" stroke="none" 
	d="
M153.078491,283.129639 
	C153.168335,282.901031 153.338806,282.852142 153.759399,282.894196 
	C153.726059,283.093231 153.442596,283.201324 153.078491,283.129639 
z"/>
<path fill="#6FCACE" opacity="1.000000" stroke="none" 
	d="
M201.855896,282.104553 
	C202.090866,282.113464 202.010941,282.529938 201.996536,282.741211 
	C201.787704,282.943268 201.593262,282.933990 201.143890,282.781036 
	C201.043518,282.335907 201.287491,282.155365 201.855896,282.104553 
z"/>
<path fill="#EDFFFF" opacity="1.000000" stroke="none" 
	d="
M50.114616,145.393219 
	C50.012409,145.229248 50.436668,145.113266 50.655792,145.121277 
	C50.874916,145.129288 50.910755,145.567932 50.874443,145.784958 
	C50.593018,145.906815 50.385918,145.758560 50.114616,145.393219 
z"/>
<path fill="#DDFFFF" opacity="1.000000" stroke="none" 
	d="
M52.030678,143.907028 
	C52.019871,143.735840 52.009068,143.564636 51.979908,142.683502 
	C51.974506,118.390694 51.967274,94.807816 52.006428,71.225006 
	C52.041439,50.137726 52.127621,29.050531 52.191223,7.963299 
	C52.469223,9.070436 52.747223,10.177573 53.041237,11.643446 
	C53.057247,55.370430 53.057247,98.738678 53.057247,142.403580 
	C55.114296,142.663177 56.376751,142.957031 57.640118,142.961014 
	C69.454117,142.998154 81.268623,143.041779 93.082253,142.967392 
	C100.770287,142.918991 100.988205,142.627426 100.988068,135.250885 
	C100.987350,96.813416 100.981842,58.375946 100.981110,19.041447 
	C100.976791,16.429119 100.969368,14.713826 100.961945,12.998532 
	C100.966743,12.554750 100.971550,12.110969 100.964203,11.334544 
	C100.960785,9.934102 100.969498,8.866303 101.254959,7.402535 
	C101.719986,7.015846 101.908279,7.025126 102.057121,7.499452 
	C102.011688,25.570919 101.981453,43.177372 102.005287,60.783752 
	C102.042381,88.187012 102.116211,115.590225 102.090950,143.238815 
	C101.988869,143.655975 101.970314,143.827759 101.951759,143.999557 
	C101.951759,143.999557 102.000641,143.957855 101.510757,143.966522 
	C84.690811,143.952454 68.360741,143.929749 52.030678,143.907028 
z"/>
<path fill="#FEFFFE" opacity="1.000000" stroke="none" 
	d="
M100.580261,13.005865 
	C100.969368,14.713826 100.976791,16.429119 100.971138,18.572998 
	C99.659103,18.127626 98.360146,17.253670 97.061195,16.379715 
	C98.106995,15.257543 99.152786,14.135370 100.580261,13.005865 
z"/>
<path fill="#DDFFFF" opacity="1.000000" stroke="none" 
	d="
M155.956589,143.789078 
	C156.752151,143.517975 157.547699,143.246872 158.672638,142.961456 
	C171.688629,142.961731 184.375214,142.976303 197.530304,142.983368 
	C199.089142,142.668655 200.179489,142.361450 201.646103,142.306091 
	C202.043915,142.756409 202.065460,142.954895 201.796631,143.466003 
	C186.323029,143.782120 171.139801,143.785599 155.956589,143.789078 
z"/>
<path fill="#0077D3" opacity="1.000000" stroke="none" 
	d="
M203.059433,12.040808 
	C202.984009,11.302724 202.908585,10.564639 202.887955,9.112597 
	C202.911301,7.921184 202.879868,7.443728 202.848450,6.966273 
	C202.848434,6.966273 203.004730,6.940424 203.520233,6.993291 
	C220.009979,7.377385 235.984238,7.708612 251.973602,8.504316 
	C251.991425,53.645252 251.994141,98.321709 251.528397,142.999359 
	C237.928391,142.999023 224.796310,143.067612 211.665512,142.967850 
	C204.569901,142.913971 204.004745,142.227295 204.004272,135.419128 
	C204.001587,96.190697 204.013535,56.962250 203.958862,17.733896 
	C203.956223,15.835787 203.372543,13.938485 203.059433,12.040808 
z"/>
<path fill="#1173BA" opacity="1.000000" stroke="none" 
	d="
M202.958679,12.264759 
	C203.372543,13.938485 203.956223,15.835787 203.958862,17.733896 
	C204.013535,56.962250 204.001587,96.190697 204.004272,135.419128 
	C204.004745,142.227295 204.569901,142.913971 211.665512,142.967850 
	C224.796310,143.067612 237.928391,142.999023 251.738007,143.000153 
	C252.416077,142.999725 252.835236,143.001953 252.901367,143.250870 
	C252.987137,143.670364 253.006760,143.840927 253.026382,144.011505 
	C253.026382,144.011505 252.645126,144.298111 252.423706,144.386948 
	C241.270065,144.317032 230.338120,144.136078 219.405548,144.009262 
	C214.260834,143.949585 209.114899,143.994003 203.480164,143.704758 
	C202.956543,143.248276 202.922272,143.078262 202.927582,142.446884 
	C202.977570,100.297737 202.990463,58.609951 202.986893,16.922169 
	C202.986771,15.602102 202.817245,14.282052 202.726685,12.961996 
	C202.726685,12.961996 202.857925,12.488711 202.958679,12.264759 
z"/>
<path fill="#BBE5FE" opacity="1.000000" stroke="none" 
	d="
M202.486359,13.300451 
	C202.817245,14.282052 202.986771,15.602102 202.986893,16.922169 
	C202.990463,58.609951 202.977570,100.297737 202.727692,142.509018 
	C202.488235,143.032516 202.087021,143.153366 202.087021,143.153366 
	C202.065460,142.954895 202.043915,142.756409 201.986572,142.260193 
	C201.634171,138.698822 201.006531,135.430557 201.055023,132.172348 
	C201.259689,118.417862 201.864822,104.667679 201.954300,90.913521 
	C202.111145,66.809273 201.992050,42.703266 202.007034,18.598011 
	C202.008072,16.944927 202.162796,15.291939 202.486359,13.300451 
z"/>
<path fill="#B7E6FD" opacity="1.000000" stroke="none" 
	d="
M253.327332,143.719421 
	C253.006760,143.840927 252.987137,143.670364 252.965729,142.785919 
	C252.975098,138.915375 252.999146,135.758698 252.995453,132.602036 
	C252.947006,91.067337 252.894669,49.532635 252.933716,7.724824 
	C253.101440,7.276186 253.178741,7.100661 253.256042,6.925137 
	C253.506622,8.192161 253.975052,9.458982 253.976242,10.726237 
	C254.016602,53.980347 254.015228,97.234505 253.998978,140.488647 
	C253.998611,141.468246 253.757233,142.447769 253.327332,143.719421 
z"/>
<path fill="#236CA5" opacity="1.000000" stroke="none" 
	d="
M253.186203,6.709342 
	C253.178741,7.100661 253.101440,7.276186 252.712326,7.731043 
	C252.400528,8.010374 251.958481,8.039840 251.958481,8.039840 
	C235.984238,7.708612 220.009979,7.377385 203.574524,7.050972 
	C203.113297,7.055787 203.005051,6.588871 203.487701,6.300618 
	C220.304443,6.029346 236.638519,6.046327 252.972595,6.063309 
	C252.972595,6.063309 253.116364,6.493548 253.186203,6.709342 
z"/>
<path fill="#DDFFFF" opacity="1.000000" stroke="none" 
	d="
M252.697449,5.748035 
	C236.638519,6.046327 220.304443,6.029346 203.507324,6.061772 
	C203.577499,5.763778 204.112030,5.111110 204.643799,5.113337 
	C220.570129,5.180044 236.496185,5.311499 252.697449,5.748035 
z"/>
<path fill="#BBE5FE" opacity="1.000000" stroke="none" 
	d="
M202.561295,7.009200 
	C202.879868,7.443728 202.911301,7.921184 202.835968,8.743915 
	C202.263229,8.728152 201.797241,8.367115 201.331253,8.006075 
	C201.645538,7.688090 201.959839,7.370109 202.561295,7.009200 
z"/>
<path fill="#58B6A8" opacity="1.000000" stroke="none" 
	d="
M201.796631,143.466003 
	C202.087021,143.153366 202.488235,143.032516 202.688110,142.970383 
	C202.922272,143.078262 202.956543,143.248276 203.014618,143.677124 
	C203.046082,144.138367 203.053711,144.340790 203.122803,144.841278 
	C203.184250,145.139328 203.029739,145.142059 202.748322,145.095886 
	C202.466919,145.049713 201.974457,145.103943 201.605042,145.070328 
	C200.495132,145.064117 199.754654,145.091522 198.675720,145.094849 
	C197.885086,145.077011 197.432922,145.083267 196.515900,145.052826 
	C183.275192,145.009583 170.499146,144.968933 157.723724,145.040939 
	C156.178925,145.049637 154.637543,145.666702 153.063446,146.469360 
	C153.061722,191.618240 153.091095,236.299561 153.120483,280.980865 
	C153.033401,281.262329 152.908676,281.526001 152.578552,281.912628 
	C152.273880,279.911346 152.019012,277.769379 152.017410,275.627197 
	C151.985016,232.427765 151.981735,189.228348 151.924011,145.571060 
	C151.901291,144.926819 151.927170,144.740417 152.244965,144.258759 
	C152.716721,143.941025 152.896561,143.918533 153.313492,143.914917 
	C153.550568,143.933777 154.006317,143.797638 154.006317,143.797638 
	C154.441025,143.831589 154.875748,143.865524 155.633514,143.844269 
	C171.139801,143.785599 186.323029,143.782120 201.796631,143.466003 
z"/>
<path fill="#7BBEF2" opacity="1.000000" stroke="none" 
	d="
M153.076416,143.896057 
	C152.896561,143.918533 152.716721,143.941025 152.265350,143.977234 
	C151.993820,143.990982 151.999542,143.999954 151.997589,143.621552 
	C151.949158,142.496109 151.902664,141.749054 151.909058,140.535645 
	C151.971313,95.770866 151.980698,51.472443 151.952194,7.055615 
	C151.914322,6.937212 151.978760,6.697083 151.978760,6.697083 
	C152.329208,8.582230 152.982300,10.466831 152.985687,12.352603 
	C153.063416,55.585068 153.070312,98.817665 153.081512,142.739838 
	C153.072617,143.429459 153.076416,143.896057 153.076416,143.896057 
z"/>
<path fill="#DDFFFF" opacity="1.000000" stroke="none" 
	d="
M102.977333,4.981470 
	C106.678001,4.983765 110.378670,4.986060 114.540405,4.976870 
	C124.021591,4.972456 133.041702,4.979527 142.530273,4.976670 
	C145.922516,5.301215 148.846329,5.635690 151.874451,6.333624 
	C151.978760,6.697083 151.914322,6.937212 151.742233,6.982203 
	C151.570145,7.027195 151.131546,6.954644 150.872864,6.601446 
	C134.754181,6.197896 118.894173,6.147545 103.017517,5.818387 
	C102.993027,5.353544 102.985184,5.167507 102.977333,4.981470 
z"/>
<path fill="#DDFFFF" opacity="1.000000" stroke="none" 
	d="
M153.313492,143.914917 
	C153.076416,143.896057 153.072617,143.429459 153.134521,143.204254 
	C153.441345,143.086609 153.646347,143.245667 153.908844,143.626923 
	C154.006317,143.797638 153.550568,143.933777 153.313492,143.914917 
z"/>
<path fill="#266DA5" opacity="1.000000" stroke="none" 
	d="
M52.122143,7.749699 
	C52.127621,29.050531 52.041439,50.137726 52.006428,71.225006 
	C51.967274,94.807816 51.974506,118.390694 51.917900,142.433762 
	C51.434528,142.646072 50.994801,142.398163 50.287247,141.835373 
	C50.019421,141.520493 50.016724,141.021912 50.261078,140.850525 
	C50.657879,140.118851 50.810322,139.558533 50.968620,138.529739 
	C50.976276,96.656242 50.991665,55.251221 50.936932,13.846292 
	C50.934383,11.918145 50.305298,9.990828 49.985733,7.767888 
	C50.013680,7.275739 50.023903,7.078825 50.034126,6.881912 
	C50.464420,6.928666 50.894714,6.975419 51.648323,7.058366 
	C51.971638,7.094559 52.053062,7.536099 52.122143,7.749699 
z"/>
<path fill="#F3FFFF" opacity="1.000000" stroke="none" 
	d="
M51.952217,4.663545 
	C51.248722,4.995021 50.495773,4.992958 49.366219,4.982394 
	C49.960667,4.759264 50.931713,4.544634 51.952217,4.663545 
z"/>
<path fill="#1174BA" opacity="1.000000" stroke="none" 
	d="
M49.841274,143.007050 
	C48.658363,143.338440 47.476299,143.954422 46.292416,143.957947 
	C31.879126,144.000824 17.465570,143.953644 2.598045,143.857208 
	C2.096329,107.524300 2.046128,71.264023 2.002761,35.003746 
	C1.992018,26.021414 2.003444,17.039053 2.029162,7.599487 
	C2.053645,7.142269 2.542815,7.041054 2.776147,7.564603 
	C3.008178,51.070683 3.065156,94.053413 2.919870,137.035461 
	C2.904507,141.580490 4.166988,143.181381 8.859821,143.089874 
	C22.515650,142.823593 36.180164,143.002655 49.841274,143.007050 
z"/>
<path fill="#F3FFFF" opacity="1.000000" stroke="none" 
	d="
M102.658882,4.844583 
	C102.985184,5.167507 102.993027,5.353544 102.986794,6.021809 
	C102.972717,6.504038 102.909370,6.910711 102.706268,6.942284 
	C102.503166,6.973857 102.096565,7.034405 102.096565,7.034405 
	C101.908279,7.025126 101.719986,7.015846 101.248543,7.002163 
	C100.414520,6.261120 99.863663,5.524482 99.312805,4.787843 
	C100.322014,4.761127 101.331223,4.734411 102.658882,4.844583 
z"/>
<path fill="#0077D3" opacity="1.000000" stroke="none" 
	d="
M49.904976,142.761536 
	C36.180164,143.002655 22.515650,142.823593 8.859821,143.089874 
	C4.166988,143.181381 2.904507,141.580490 2.919870,137.035461 
	C3.065156,94.053413 3.008178,51.070683 3.016862,7.631228 
	C3.444357,7.114740 3.864469,7.055175 4.975970,7.133819 
	C7.444279,7.512117 9.226570,7.992630 10.997242,7.953074 
	C22.068634,7.705747 33.136330,7.285131 44.208141,7.071872 
	C46.121021,7.035027 48.047699,7.714517 49.968010,8.063125 
	C50.305298,9.990828 50.934383,11.918145 50.936932,13.846292 
	C50.991665,55.251221 50.976276,96.656242 50.730240,138.704102 
	C50.329578,139.905258 50.173153,140.463593 50.016724,141.021912 
	C50.016724,141.021912 50.019421,141.520493 50.039841,141.768768 
	C50.029732,142.183380 49.999207,142.349701 49.904976,142.761536 
z"/>
<path fill="#236CA5" opacity="1.000000" stroke="none" 
	d="
M49.985733,7.767888 
	C48.047699,7.714517 46.121021,7.035027 44.208141,7.071872 
	C33.136330,7.285131 22.068634,7.705747 10.997242,7.953074 
	C9.226570,7.992630 7.444279,7.512117 5.292729,7.094254 
	C5.612390,6.611563 6.306832,6.040580 7.000950,6.040976 
	C21.178514,6.049039 35.356041,6.122402 49.783852,6.532325 
	C50.023903,7.078825 50.013680,7.275739 49.985733,7.767888 
z"/>
<path fill="#00AF98" opacity="1.000000" stroke="none" 
	d="
M98.382683,280.938293 
	C83.652443,281.009155 69.296402,281.001373 54.177895,280.698120 
	C53.281437,279.592529 53.030586,278.782410 53.030212,277.972198 
	C53.010448,235.208466 53.003662,192.444733 53.052376,149.681061 
	C53.053776,148.451859 53.667507,147.223343 54.464649,145.996674 
	C70.277832,146.008835 85.622093,146.018829 100.966354,146.028824 
	C100.975754,188.210831 101.027184,230.392975 100.898460,272.574554 
	C100.890022,275.338379 99.502777,278.098022 98.382683,280.938293 
z"/>
<path fill="#58B6A8" opacity="1.000000" stroke="none" 
	d="
M51.992367,144.205475 
	C68.360741,143.929749 84.690811,143.952454 101.485779,143.946289 
	C101.939827,144.117661 101.928963,144.317917 101.867744,144.815460 
	C101.817383,145.112762 101.395508,145.079987 100.719551,145.055328 
	C84.702560,145.047821 69.361526,145.064972 53.702728,145.056061 
	C52.960560,145.018570 52.536152,145.007095 52.111748,144.995636 
	C52.111748,144.995636 51.988853,145.107300 51.905251,145.099152 
	C51.865784,144.895294 51.909920,144.699615 51.992367,144.205475 
z"/>
<path fill="#12A793" opacity="1.000000" stroke="none" 
	d="
M54.020489,145.082108 
	C69.361526,145.064972 84.702560,145.047821 100.508331,145.067657 
	C100.973076,145.104660 100.980515,145.566467 100.973434,145.797638 
	C85.622093,146.018829 70.277832,146.008835 54.468891,145.768555 
	C54.004211,145.538269 54.020489,145.082108 54.020489,145.082108 
z"/>
<path fill="#219F92" opacity="1.000000" stroke="none" 
	d="
M53.702728,145.056061 
	C54.020489,145.082108 54.004211,145.538269 53.999969,145.766388 
	C53.667507,147.223343 53.053776,148.451859 53.052376,149.681061 
	C53.003662,192.444733 53.010448,235.208466 53.030212,277.972198 
	C53.030586,278.782410 53.281437,279.592529 53.709457,280.698303 
	C53.653919,281.307068 53.304348,281.620239 52.715981,281.977539 
	C52.314987,280.550964 52.011517,279.080261 52.011108,277.609497 
	C51.998943,233.716446 52.016785,189.823395 52.070816,145.462982 
	C52.536152,145.007095 52.960560,145.018570 53.702728,145.056061 
z"/>
<path fill="#22A190" opacity="1.000000" stroke="none" 
	d="
M201.974457,145.103943 
	C201.974457,145.103943 202.466919,145.049713 202.713531,145.026886 
	C202.968903,190.344559 202.977676,235.685059 202.939163,281.488647 
	C202.891876,281.951721 202.440399,282.000061 202.213852,281.985657 
	C201.987305,281.971222 201.981934,281.472748 201.988342,280.757812 
	C201.988297,235.369476 201.981842,190.696075 201.979721,145.792984 
	C201.984055,145.563293 201.974457,145.103943 201.974457,145.103943 
z"/>
<path fill="#00AF98" opacity="1.000000" stroke="none" 
	d="
M201.975388,146.022675 
	C201.981842,190.696075 201.988297,235.369476 201.984131,280.508606 
	C186.303741,280.978577 170.633987,280.982849 154.487488,280.513641 
	C154.013092,235.363220 154.015442,190.686295 154.484619,146.006073 
	C167.225739,146.001678 179.500259,146.036209 191.774078,145.958984 
	C193.511398,145.948059 195.245270,145.392822 196.980743,145.089523 
	C197.432922,145.083267 197.885086,145.077011 198.892120,145.332001 
	C200.289764,145.736359 201.132584,145.879517 201.975388,146.022675 
z"/>
<path fill="#10A88F" opacity="1.000000" stroke="none" 
	d="
M154.017792,146.009354 
	C154.015442,190.686295 154.013092,235.363220 154.020844,280.505463 
	C154.030914,280.970764 153.574692,280.985138 153.347595,280.983002 
	C153.091095,236.299561 153.061722,191.618240 153.293854,146.470245 
	C153.555389,146.003555 154.017792,146.009354 154.017792,146.009354 
z"/>
<path fill="#6FCACE" opacity="1.000000" stroke="none" 
	d="
M194.992096,282.463562 
	C194.914764,282.673126 194.709030,282.741608 194.191757,282.716003 
	C194.208069,282.522095 194.535904,282.422302 194.992096,282.463562 
z"/>
<path fill="#1173BA" opacity="1.000000" stroke="none" 
	d="
M151.856171,141.002014 
	C151.902664,141.749054 151.949158,142.496109 151.998215,143.618256 
	C137.311768,143.983139 122.622749,143.972916 107.465866,143.698318 
	C106.997993,143.433945 106.996567,142.978317 107.465698,142.980927 
	C121.287880,142.982910 134.640915,142.982269 148.348267,142.983383 
	C149.467773,142.323013 150.232971,141.660904 151.212677,140.999268 
	C151.427170,140.999741 151.856171,141.002014 151.856171,141.002014 
z"/>
<path fill="#0B74C7" opacity="1.000000" stroke="none" 
	d="
M106.996567,142.978317 
	C106.996567,142.978317 106.997993,143.433945 106.998627,143.659897 
	C105.598969,143.925018 104.198662,143.964203 102.375061,144.001465 
	C101.970314,143.827759 101.988869,143.655975 102.336128,142.987152 
	C102.805222,141.328186 102.945610,140.166275 103.329468,139.221024 
	C104.714142,140.617905 105.855354,141.798111 106.996567,142.978317 
z"/>
<path fill="#246EA7" opacity="1.000000" stroke="none" 
	d="
M103.086006,139.004349 
	C102.945610,140.166275 102.805222,141.328186 102.419647,142.741791 
	C102.116211,115.590225 102.042381,88.187012 102.005287,60.783752 
	C101.981453,43.177372 102.011688,25.570919 102.057121,7.499452 
	C102.096565,7.034405 102.503166,6.973857 102.751892,6.982866 
	C103.000618,6.991876 103.087105,7.078099 103.066498,7.310061 
	C103.045891,7.542023 103.070549,8.007714 103.059387,8.475725 
	C103.060814,52.297276 103.073410,95.650810 103.086006,139.004349 
z"/>
<path fill="#1574B6" opacity="1.000000" stroke="none" 
	d="
M251.973602,8.504316 
	C251.958481,8.039840 252.400528,8.010374 252.621918,8.004156 
	C252.894669,49.532635 252.947006,91.067337 252.995453,132.602036 
	C252.999146,135.758698 252.975098,138.915375 252.899597,142.537003 
	C252.835236,143.001953 252.416077,142.999725 252.206467,142.998947 
	C251.994141,98.321709 251.991425,53.645252 251.973602,8.504316 
z"/>
<path fill="#12A793" opacity="1.000000" stroke="none" 
	d="
M154.484619,146.006073 
	C154.017792,146.009354 153.555389,146.003555 153.324982,146.002686 
	C154.637543,145.666702 156.178925,145.049637 157.723724,145.040939 
	C170.499146,144.968933 183.275192,145.009583 196.515900,145.052826 
	C195.245270,145.392822 193.511398,145.948059 191.774078,145.958984 
	C179.500259,146.036209 167.225739,146.001678 154.484619,146.006073 
z"/>
<path fill="#12A793" opacity="1.000000" stroke="none" 
	d="
M201.979721,145.792984 
	C201.132584,145.879517 200.289764,145.736359 199.230560,145.356064 
	C199.754654,145.091522 200.495132,145.064117 201.605042,145.070328 
	C201.974457,145.103943 201.984055,145.563293 201.979721,145.792984 
z"/>
<path fill="#1373BD" opacity="1.000000" stroke="none" 
	d="
M151.909058,140.535645 
	C151.856171,141.002014 151.427170,140.999741 151.208099,140.747192 
	C150.982391,140.326721 150.975769,140.158768 150.975739,139.522766 
	C150.984329,95.703690 150.986328,52.352627 150.885803,8.780124 
	C150.586182,8.282982 150.325302,8.096539 150.000610,7.999401 
	C150.000610,7.999454 150.004684,7.993357 150.000565,7.752406 
	C149.996445,7.511455 149.985229,7.029613 150.271896,7.012269 
	C150.749573,6.981498 150.940567,6.968071 151.131546,6.954644 
	C151.131546,6.954644 151.570145,7.027195 151.780106,7.100607 
	C151.980698,51.472443 151.971313,95.770866 151.909058,140.535645 
z"/>
<path fill="#236CA5" opacity="1.000000" stroke="none" 
	d="
M150.872864,6.601446 
	C150.940567,6.968071 150.749573,6.981498 150.024231,7.007933 
	C149.489883,7.020940 148.994873,7.047889 148.526703,7.036298 
	C133.375015,7.034811 118.691521,7.044915 103.777435,7.046653 
	C103.546852,7.038287 103.087105,7.078099 103.087105,7.078099 
	C103.087105,7.078099 103.000618,6.991876 102.954994,6.951293 
	C102.909370,6.910711 102.972717,6.504038 103.003441,6.300615 
	C118.894173,6.147545 134.754181,6.197896 150.872864,6.601446 
z"/>
<path fill="#0B74C7" opacity="1.000000" stroke="none" 
	d="
M50.261078,140.850525 
	C50.173153,140.463593 50.329578,139.905258 50.724388,139.172577 
	C50.810322,139.558533 50.657879,140.118851 50.261078,140.850525 
z"/>
<path fill="#0077D3" opacity="1.000000" stroke="none" 
	d="
M104.008026,7.055018 
	C118.691521,7.044915 133.375015,7.034811 148.640305,7.245726 
	C149.425705,7.727330 149.686569,7.902868 150.004684,7.993357 
	C150.004684,7.993357 150.000610,7.999454 150.107132,8.217940 
	C150.410095,8.709492 150.668320,8.897872 150.988327,9.001569 
	C150.986328,52.352627 150.984329,95.703690 150.639877,139.560669 
	C149.529602,141.038269 148.761780,142.009949 147.993958,142.981628 
	C134.640915,142.982269 121.287880,142.982910 107.465706,142.980927 
	C105.855354,141.798111 104.714142,140.617905 103.329468,139.221024 
	C103.073410,95.650810 103.060814,52.297276 103.260101,8.365855 
	C103.722252,7.596019 103.900932,7.351701 104.008026,7.055018 
z"/>
<path fill="#0576CD" opacity="1.000000" stroke="none" 
	d="
M148.348267,142.983383 
	C148.761780,142.009949 149.529602,141.038269 150.633270,140.028702 
	C150.975769,140.158768 150.982391,140.326721 150.993591,140.746719 
	C150.232971,141.660904 149.467773,142.323013 148.348267,142.983383 
z"/>
<path fill="#0C76C9" opacity="1.000000" stroke="none" 
	d="
M103.777435,7.046653 
	C103.900932,7.351701 103.722252,7.596019 103.271271,7.897844 
	C103.070549,8.007714 103.045891,7.542023 103.066498,7.310061 
	C103.087105,7.078099 103.546852,7.038287 103.777435,7.046653 
z"/>
<path fill="#0C76C9" opacity="1.000000" stroke="none" 
	d="
M150.000565,7.752406 
	C149.686569,7.902868 149.425705,7.727330 149.108490,7.257317 
	C148.994873,7.047889 149.489883,7.020940 149.737549,7.025276 
	C149.985229,7.029613 149.996445,7.511455 150.000565,7.752406 
z"/>
<path fill="#0576CD" opacity="1.000000" stroke="none" 
	d="
M150.885803,8.780124 
	C150.668320,8.897872 150.410095,8.709492 150.107132,8.217887 
	C150.325302,8.096539 150.586182,8.282982 150.885803,8.780124 
z"/>
</svg>