<svg width="257" height="284" version="1.1" xmlns="http://www.w3.org/2000/svg" desc="Created with imagetracer.js version 1.2.6" ><path fill="rgb(254,253,253)" stroke="rgb(254,253,253)" stroke-width="1" opacity="1" d="M 57 0 L 59 0.5 L 57 1.5 L 57 0 Z " /><path fill="rgb(254,253,253)" stroke="rgb(254,253,253)" stroke-width="1" opacity="1" d="M 197.5 0 L 198 2 Q 201 1 200 4 Q 194.9 5.6 197.5 0 Z " /><path fill="rgb(254,253,253)" stroke="rgb(254,253,253)" stroke-width="1" opacity="1" d="M 108.5 2 L 111 2.5 L 108.5 3 L 108.5 2 Z " /><path fill="rgb(254,253,253)" stroke="rgb(254,253,253)" stroke-width="1" opacity="1" d="M 251.5 2 Q 253.8 1.3 253 3.5 L 251.5 2 Z " /><path fill="rgb(254,253,253)" stroke="rgb(254,253,253)" stroke-width="1" opacity="1" d="M 255.5 2 L 256 3.5 L 254 4.5 L 255.5 2 Z " /><path fill="rgb(254,253,253)" stroke="rgb(254,253,253)" stroke-width="1" opacity="1" d="M 192.5 6 L 195 7.5 L 194 8.5 L 195.5 11 L 193.5 11 Q 190.9 11.8 192 8.5 Q 189.7 7.2 192.5 6 Z " /><path fill="rgb(254,253,253)" stroke="rgb(254,253,253)" stroke-width="1" opacity="1" d="M 155.5 8 Q 157.8 7.3 157 9.5 L 155.5 8 Z " /><path fill="rgb(254,253,253)" stroke="rgb(254,253,253)" stroke-width="1" opacity="1" d="M 198.5 9 L 200 12 Q 196.2 13.5 197 10.5 L 198.5 9 Z " /><path fill="rgb(254,253,253)" stroke="rgb(254,253,253)" stroke-width="1" opacity="1" d="M 60.5 11 L 59 13.5 L 60.5 17 L 61.5 13 L 62 16.5 L 61 17.5 L 60.5 127 L 60 17.5 L 58 13.5 L 60.5 11 Z " /><path fill="rgb(254,253,253)" stroke="rgb(254,253,253)" stroke-width="1" opacity="1" d="M 98.5 12 L 99 14.5 L 98 14.5 L 98.5 12 Z " /><path fill="rgb(254,253,253)" stroke="rgb(254,253,253)" stroke-width="1" opacity="1" d="M 153.5 12 L 156 12.5 Q 153.9 15.8 153.5 12 Z " /><path fill="rgb(254,253,253)" stroke="rgb(254,253,253)" stroke-width="1" opacity="1" d="M 195.5 17 L 196 126.5 L 195 126.5 L 195.5 17 Z " /><path fill="rgb(254,253,253)" stroke="rgb(254,253,253)" stroke-width="1" opacity="1" d="M 96.5 128 L 99 128.5 L 96.5 129 L 96.5 128 Z " /><path fill="rgb(254,253,253)" stroke="rgb(254,253,253)" stroke-width="1" opacity="1" d="M 61.5 130 L 60 132.5 L 61 135.5 L 60 135.5 L 59.5 134 L 58 134.5 L 59 131 L 61.5 130 Z " /><path fill="rgb(254,253,253)" stroke="rgb(254,253,253)" stroke-width="1" opacity="1" d="M 154.5 130 Q 157.1 129.3 156 132 L 153.5 133 L 153 131.5 L 154.5 130 Z " /><path fill="rgb(254,253,253)" stroke="rgb(254,253,253)" stroke-width="1" opacity="1" d="M 159 136 L 161 136.5 L 160.5 138 L 190.5 138 L 191.5 137 L 192 140 L 194 140.5 L 192.5 141 L 190.5 139 L 161.5 139 L 158.5 141 L 158.5 140 Q 160.8 140.8 160 138.5 L 159 136 Z " /><path fill="rgb(254,253,253)" stroke="rgb(254,253,253)" stroke-width="1" opacity="1" d="M 58.5 137 L 59 139 L 62 139.5 Q 60 143 58 138.5 L 58.5 137 Z " /><path fill="rgb(254,253,253)" stroke="rgb(254,253,253)" stroke-width="1" opacity="1" d="M 64.5 138 L 96 138.5 L 64.5 139 L 64.5 138 Z " /><path fill="rgb(254,253,253)" stroke="rgb(254,253,253)" stroke-width="1" opacity="1" d="M 255.5 141 L 257 143.5 L 255 144.5 L 255 142.5 L 255.5 141 Z " /><path fill="rgb(254,253,253)" stroke="rgb(254,253,253)" stroke-width="1" opacity="1" d="M 146.5 145 L 147 271.5 L 146 271.5 L 146.5 145 Z " /><path fill="rgb(254,253,253)" stroke="rgb(254,253,253)" stroke-width="1" opacity="1" d="M 110.5 272 L 112 272.5 L 109.5 274 L 110.5 272 Z " /><path fill="rgb(254,253,253)" stroke="rgb(254,253,253)" stroke-width="1" opacity="1" d="M 146.5 273 L 149 274 Q 150.1 277.3 146 276 L 146.5 273 Z " /><path fill="rgb(254,253,253)" stroke="rgb(254,253,253)" stroke-width="1" opacity="1" d="M 203.5 274 L 204 276 Q 206.7 274.9 206 277.5 L 207 278.5 L 202.5 283 L 205 279.5 L 203 275.5 L 203.5 274 Z " /><path fill="rgb(254,253,253)" stroke="rgb(254,253,253)" stroke-width="1" opacity="1" d="M 105.5 277 L 108 278.5 L 105 280.5 L 106 278.5 L 105.5 277 Z " /><path fill="rgb(254,253,253)" stroke="rgb(254,253,253)" stroke-width="1" opacity="1" d="M 48.5 280 L 50 282.5 L 47.5 284 L 48 282.5 L 48.5 280 Z " /><path fill="rgb(254,253,253)" stroke="rgb(254,253,253)" stroke-width="1" opacity="1" d="M 146.5 281 L 150 283.5 L 148.5 284 L 146.5 281 Z " /><path fill="rgb(148,216,243)" stroke="rgb(148,216,243)" stroke-width="1" opacity="1" d="M 0.5 5 L 1 143 L 51 143 L 51 281 L 101 281 L 101 143 L 150.5 143 L 151 142.5 L 151 5.5 L 152 5.5 L 152 142.5 L 150.5 144 L 102 144 L 102 280.5 L 100.5 282 L 51.5 282 L 50 280.5 L 50 144 L 1.5 144 L 0 142.5 L 0.5 5 Z " /><path fill="rgb(148,216,243)" stroke="rgb(148,216,243)" stroke-width="1" opacity="1" d="M 252.5 5 L 253 135.5 L 252 135.5 L 252.5 5 Z " /><path fill="rgb(148,216,243)" stroke="rgb(148,216,243)" stroke-width="1" opacity="1" d="M 201.5 10 L 202 15.5 L 201 15.5 L 201.5 10 Z " /><path fill="rgb(148,216,243)" stroke="rgb(148,216,243)" stroke-width="1" opacity="1" d="M 201.5 128 L 202 131.5 L 201 131.5 L 201.5 128 Z " /><path fill="rgb(148,216,243)" stroke="rgb(148,216,243)" stroke-width="1" opacity="1" d="M 201.5 135 L 202 137.5 L 201 137.5 L 201.5 135 Z " /><path fill="rgb(148,216,243)" stroke="rgb(148,216,243)" stroke-width="1" opacity="1" d="M 252.5 137 L 253 139.5 L 252 139.5 L 252.5 137 Z " /><path fill="rgb(148,216,243)" stroke="rgb(148,216,243)" stroke-width="1" opacity="1" d="M 201.5 142 L 202.5 143 L 251.5 143 L 253 142.5 L 251.5 144 L 202.5 144 L 201.5 142 Z " /><path fill="rgb(148,216,243)" stroke="rgb(148,216,243)" stroke-width="1" opacity="1" d="M 151.5 281 L 202 281.5 L 151.5 282 L 151.5 281 Z " /><path fill="rgb(24,113,178)" stroke="rgb(24,113,178)" stroke-width="1" opacity="1" d="M 2.5 5 L 51 5 L 51 143 Q 48 144.3 49 140.5 L 50 139.5 L 50 8.5 L 47.5 6 L 3.5 6 L 1.5 7 L 2.5 5 Z " /><path fill="rgb(24,113,178)" stroke="rgb(24,113,178)" stroke-width="1" opacity="1" d="M 101 5 L 149.5 5 L 151 6.5 L 150.5 8 L 148.5 6 L 104.5 6 L 102 8.5 L 102 139.5 L 103 143 L 101 142.5 L 101 5 Z " /><path fill="rgb(24,113,178)" stroke="rgb(24,113,178)" stroke-width="1" opacity="1" d="M 202 5 L 251.5 5 Q 252.8 5.3 252 11.5 L 251 11.5 Q 252 7 249.5 6 L 244.5 7 L 243.5 6 L 203 6 L 202.5 12 L 202 5 Z " /><path fill="rgb(24,113,178)" stroke="rgb(24,113,178)" stroke-width="1" opacity="1" d="M 150.5 9 L 151 11.5 L 150 11.5 L 150.5 9 Z " /><path fill="rgb(24,113,178)" stroke="rgb(24,113,178)" stroke-width="1" opacity="1" d="M 1.5 10 L 2 131.5 L 1 131.5 L 1.5 10 Z " /><path fill="rgb(24,113,178)" stroke="rgb(24,113,178)" stroke-width="1" opacity="1" d="M 150.5 14 L 151 127.5 L 150 127.5 L 150.5 14 Z " /><path fill="rgb(24,113,178)" stroke="rgb(24,113,178)" stroke-width="1" opacity="1" d="M 251.5 14 L 252 142.5 L 251 142.5 L 251.5 14 Z " /><path fill="rgb(24,113,178)" stroke="rgb(24,113,178)" stroke-width="1" opacity="1" d="M 202.5 15 L 203 142.5 L 202 142.5 L 202.5 15 Z " /><path fill="rgb(24,113,178)" stroke="rgb(24,113,178)" stroke-width="1" opacity="1" d="M 150.5 130 L 151 143 L 149 142.5 L 150 141.5 L 150.5 130 Z " /><path fill="rgb(24,113,178)" stroke="rgb(24,113,178)" stroke-width="1" opacity="1" d="M 1.5 135 L 2 137.5 L 1 137.5 L 1.5 135 Z " /><path fill="rgb(24,113,178)" stroke="rgb(24,113,178)" stroke-width="1" opacity="1" d="M 1.5 140 L 3 142.5 L 1 143 L 1.5 140 Z " /><path fill="rgb(24,113,178)" stroke="rgb(24,113,178)" stroke-width="1" opacity="1" d="M 6.5 142 L 9 142.5 L 6.5 143 L 6.5 142 Z " /><path fill="rgb(24,113,178)" stroke="rgb(24,113,178)" stroke-width="1" opacity="1" d="M 12.5 142 L 47 142.5 L 12.5 143 L 12.5 142 Z " /><path fill="rgb(24,113,178)" stroke="rgb(24,113,178)" stroke-width="1" opacity="1" d="M 106.5 142 L 110 142.5 L 106.5 143 L 106.5 142 Z " /><path fill="rgb(24,113,178)" stroke="rgb(24,113,178)" stroke-width="1" opacity="1" d="M 112.5 142 L 147 142.5 L 112.5 143 L 112.5 142 Z " /><path fill="rgb(24,113,178)" stroke="rgb(24,113,178)" stroke-width="1" opacity="1" d="M 206.5 142 L 240 142.5 L 206.5 143 L 206.5 142 Z " /><path fill="rgb(24,113,178)" stroke="rgb(24,113,178)" stroke-width="1" opacity="1" d="M 241.5 142 L 247 142.5 L 241.5 143 L 241.5 142 Z " /><path fill="rgb(254,254,249)" stroke="rgb(254,254,249)" stroke-width="1" opacity="1" d="M 0 0 Q 2.7 -1.1 2 1.5 L 0 2.5 L 0 0 Z " /><path fill="rgb(254,254,249)" stroke="rgb(254,254,249)" stroke-width="1" opacity="1" d="M 6 0 Q 9.3 -1.1 8 3 Q 4.7 4.1 6 0 Z " /><path fill="rgb(254,254,249)" stroke="rgb(254,254,249)" stroke-width="1" opacity="1" d="M 48 0 Q 52.1 -1.3 51 2 Q 46.9 3.3 48 0 Z " /><path fill="rgb(254,254,249)" stroke="rgb(254,254,249)" stroke-width="1" opacity="1" d="M 96 0 Q 99 -1 98 2 Q 95 3 96 0 Z " /><path fill="rgb(254,254,249)" stroke="rgb(254,254,249)" stroke-width="1" opacity="1" d="M 101 0 L 106 0.5 Q 104.8 3 101 2 L 101 0 Z " /><path fill="rgb(254,254,249)" stroke="rgb(254,254,249)" stroke-width="1" opacity="1" d="M 149 0 L 153 0 L 153 1.5 L 154 4 L 149 3 L 149 0 Z " /><path fill="rgb(254,254,249)" stroke="rgb(254,254,249)" stroke-width="1" opacity="1" d="M 157 0 Q 161.1 -1.3 160 2 Q 155.9 3.3 157 0 Z " /><path fill="rgb(254,254,249)" stroke="rgb(254,254,249)" stroke-width="1" opacity="1" d="M 194 0 Q 198.5 -1.5 197 3 L 194 1.5 L 194 0 Z " /><path fill="rgb(254,254,249)" stroke="rgb(254,254,249)" stroke-width="1" opacity="1" d="M 247.5 0 Q 253.8 -1.3 255 2.5 L 253.5 3 L 248.5 2 L 247.5 0 Z " /><path fill="rgb(254,254,249)" stroke="rgb(254,254,249)" stroke-width="1" opacity="1" d="M 143.5 2 L 146 2.5 L 143.5 3 L 143.5 2 Z " /><path fill="rgb(254,254,249)" stroke="rgb(254,254,249)" stroke-width="1" opacity="1" d="M 200 2 L 203 2.5 L 200.5 4 L 200 2 Z " /><path fill="rgb(254,254,249)" stroke="rgb(254,254,249)" stroke-width="1" opacity="1" d="M 206.5 2 L 209 2.5 L 206.5 3 L 206.5 2 Z " /><path fill="rgb(254,254,249)" stroke="rgb(254,254,249)" stroke-width="1" opacity="1" d="M 54 5 L 56 5 L 56 11 L 54 11 L 54 5 Z " /><path fill="rgb(254,254,249)" stroke="rgb(254,254,249)" stroke-width="1" opacity="1" d="M 96 6 Q 99.3 4.9 98 9 Q 94.7 10.1 96 6 Z " /><path fill="rgb(254,254,249)" stroke="rgb(254,254,249)" stroke-width="1" opacity="1" d="M 255.5 8 L 256 10 L 254 9.5 L 255.5 8 Z " /><path fill="rgb(254,254,249)" stroke="rgb(254,254,249)" stroke-width="1" opacity="1" d="M 154 9 Q 157 7.8 156 11.5 Q 154.5 14.5 153 11.5 L 154 9 Z " /><path fill="rgb(254,254,249)" stroke="rgb(254,254,249)" stroke-width="1" opacity="1" d="M 60.5 12 L 61 16.5 L 59 15.5 L 60.5 12 Z " /><path fill="rgb(254,254,249)" stroke="rgb(254,254,249)" stroke-width="1" opacity="1" d="M 195.5 12 L 197 14.5 L 195 15.5 L 195.5 12 Z " /><path fill="rgb(254,254,249)" stroke="rgb(254,254,249)" stroke-width="1" opacity="1" d="M 154.5 17 L 155 126.5 L 154 126.5 L 154.5 17 Z " /><path fill="rgb(254,254,249)" stroke="rgb(254,254,249)" stroke-width="1" opacity="1" d="M 60.5 127 L 62 129.5 Q 60.5 132.5 59 129.5 L 60.5 127 Z " /><path fill="rgb(254,254,249)" stroke="rgb(254,254,249)" stroke-width="1" opacity="1" d="M 158 130 Q 161.7 128.8 160 134 Q 156.3 135.2 158 130 Z " /><path fill="rgb(254,254,249)" stroke="rgb(254,254,249)" stroke-width="1" opacity="1" d="M 194.5 130 Q 197.5 131.5 194.5 133 Q 191.5 131.5 194.5 130 Z " /><path fill="rgb(254,254,249)" stroke="rgb(254,254,249)" stroke-width="1" opacity="1" d="M 55.5 134 L 56 136.5 L 55 136.5 L 55.5 134 Z " /><path fill="rgb(254,254,249)" stroke="rgb(254,254,249)" stroke-width="1" opacity="1" d="M 59.5 135 L 62 136 Q 63.5 140.5 59 139 L 58 136.5 L 59.5 135 Z " /><path fill="rgb(254,254,249)" stroke="rgb(254,254,249)" stroke-width="1" opacity="1" d="M 96.5 135 Q 99.5 134.2 98 138 L 95 136.5 L 96.5 135 Z " /><path fill="rgb(254,254,249)" stroke="rgb(254,254,249)" stroke-width="1" opacity="1" d="M 158 138 Q 161 137 160 140 Q 157 141 158 138 Z " /><path fill="rgb(254,254,249)" stroke="rgb(254,254,249)" stroke-width="1" opacity="1" d="M 192 138 L 196 138 L 196 139.5 Q 194.8 142.3 193.5 140 Q 190.9 140.7 192 138 Z " /><path fill="rgb(254,254,249)" stroke="rgb(254,254,249)" stroke-width="1" opacity="1" d="M 254.5 142 L 255.5 144 L 253 143.5 L 254.5 142 Z " /><path fill="rgb(254,254,249)" stroke="rgb(254,254,249)" stroke-width="1" opacity="1" d="M 204 274 L 208 275.5 L 204 276 L 204 274 Z " /><path fill="rgb(254,254,249)" stroke="rgb(254,254,249)" stroke-width="1" opacity="1" d="M 144 278 L 148 278.5 L 144 280 L 144 278 Z " /><path fill="rgb(254,254,249)" stroke="rgb(254,254,249)" stroke-width="1" opacity="1" d="M 144 282 L 148 283.5 L 144 284 L 144 282 Z " /><path fill="rgb(254,254,249)" stroke="rgb(254,254,249)" stroke-width="1" opacity="1" d="M 203.5 282 L 207 283.5 L 202.5 284 L 203.5 282 Z " /><path fill="rgb(254,254,249)" stroke="rgb(254,254,249)" stroke-width="1" opacity="1" d="M 48.5 283 L 52 283.5 L 48.5 284 L 48.5 283 Z " /><path fill="rgb(0,119,211)" stroke="rgb(0,119,211)" stroke-width="1" opacity="1" d="M 2.5 7 L 47.5 7 L 49 8.5 L 49 140.5 L 48.5 141 L 11.5 141 L 9.5 141 L 4.5 142 Q 0.2 140.3 3 138.5 L 2 133.5 L 3 132.5 L 3 8.5 L 2.5 7 Z " /><path fill="rgb(0,119,211)" stroke="rgb(0,119,211)" stroke-width="1" opacity="1" d="M 104.5 7 L 149.5 7 L 150 9.5 L 149 10.5 L 149 141 L 143.5 142 L 142.5 141 L 113.5 141 L 111.5 141 L 107.5 140 L 103 141 L 103 8.5 L 104.5 7 Z M 144 10 L 144 11 L 146 11 L 144 10 Z " /><path fill="rgb(0,119,211)" stroke="rgb(0,119,211)" stroke-width="1" opacity="1" d="M 203 7 L 242.5 7 L 246.5 8 L 249.5 7 L 251 8.5 L 251 140.5 L 248.5 142 L 247.5 141 L 207.5 141 L 206.5 140 L 203.5 142 L 203 7 Z " /><path fill="rgb(254,254,254)" stroke="rgb(254,254,254)" stroke-width="1" opacity="1" d="M 59.5 0 L 60 2 L 57 3.5 L 56.5 9 L 55 3.5 L 56.5 1 Q 58 3.5 59.5 0 Z " /><path fill="rgb(254,254,254)" stroke="rgb(254,254,254)" stroke-width="1" opacity="1" d="M 99.5 0 L 98.5 2 L 99.5 0 Z " /><path fill="rgb(254,254,254)" stroke="rgb(254,254,254)" stroke-width="1" opacity="1" d="M 194.5 2 L 195.5 4 L 194.5 2 Z " /><path fill="rgb(254,254,254)" stroke="rgb(254,254,254)" stroke-width="1" opacity="1" d="M 158.5 6 Q 161.3 7.2 159 8.5 L 158.5 10 L 158.5 6 Z " /><path fill="rgb(254,254,254)" stroke="rgb(254,254,254)" stroke-width="1" opacity="1" d="M 159.5 17 L 160 126.5 L 159 126.5 L 159.5 17 Z " /><path fill="rgb(254,254,254)" stroke="rgb(254,254,254)" stroke-width="1" opacity="1" d="M 95.5 128 L 96.5 130 L 95.5 128 Z " /><path fill="rgb(254,254,254)" stroke="rgb(254,254,254)" stroke-width="1" opacity="1" d="M 56 135 Q 59 134 58 137 L 55.5 138 L 54.5 136 L 56 136.5 L 56 135 Z " /><path fill="rgb(254,254,254)" stroke="rgb(254,254,254)" stroke-width="1" opacity="1" d="M 144.5 145 L 145 272.5 L 144 272.5 L 144.5 145 Z " /><path fill="rgb(254,254,254)" stroke="rgb(254,254,254)" stroke-width="1" opacity="1" d="M 147.5 272 Q 149.8 271.3 149 273.5 L 147.5 272 Z " /><path fill="rgb(254,254,254)" stroke="rgb(254,254,254)" stroke-width="1" opacity="1" d="M 110.5 274 L 109.5 276 L 110.5 274 Z " /><path fill="rgb(254,254,254)" stroke="rgb(254,254,254)" stroke-width="1" opacity="1" d="M 106.5 275 L 108 277.5 L 106 276.5 L 106.5 275 Z " /><path fill="rgb(222,254,254)" stroke="rgb(222,254,254)" stroke-width="1" opacity="1" d="M 1.5 4 L 50.5 4 L 52 5.5 L 52 142 L 98.5 142 L 100 140.5 L 100 5.5 L 101.5 4 L 151 4.5 L 101 5 L 101 143 L 51 143 L 51 5 L 1.5 5 L 1.5 4 Z " /><path fill="rgb(222,254,254)" stroke="rgb(222,254,254)" stroke-width="1" opacity="1" d="M 202.5 4 L 252 4.5 L 202.5 5 L 202.5 4 Z " /><path fill="rgb(222,254,254)" stroke="rgb(222,254,254)" stroke-width="1" opacity="1" d="M 201.5 16 L 202 127.5 L 201 127.5 L 201.5 16 Z " /><path fill="rgb(222,254,254)" stroke="rgb(222,254,254)" stroke-width="1" opacity="1" d="M 201.5 132 L 202 134.5 L 201 134.5 L 201.5 132 Z " /><path fill="rgb(222,254,254)" stroke="rgb(222,254,254)" stroke-width="1" opacity="1" d="M 152.5 141 L 153.5 142 L 199.5 142 L 201.5 141 L 200.5 143 L 152.5 143 L 152.5 141 Z " /><path fill="rgb(222,254,254)" stroke="rgb(222,254,254)" stroke-width="1" opacity="1" d="M 149.5 144 L 151 144.5 L 151 280.5 L 150 280.5 L 150 145.5 L 149.5 144 Z " /><path fill="rgb(222,254,254)" stroke="rgb(222,254,254)" stroke-width="1" opacity="1" d="M 202.5 144 L 203 280.5 L 202 280.5 L 202.5 144 Z " /><path fill="rgb(222,254,254)" stroke="rgb(222,254,254)" stroke-width="1" opacity="1" d="M 50.5 281 L 53 282.5 L 51.5 283 L 50.5 281 Z " /><path fill="rgb(222,254,254)" stroke="rgb(222,254,254)" stroke-width="1" opacity="1" d="M 101.5 281 L 100.5 283 L 99 282.5 L 101.5 281 Z " /><path fill="rgb(9,117,199)" stroke="rgb(9,117,199)" stroke-width="1" opacity="1" d="M 3.5 6 L 47.5 6 L 50 8.5 L 49.5 140 L 49 8.5 L 47.5 7 L 3.5 7 L 3.5 6 Z " /><path fill="rgb(9,117,199)" stroke="rgb(9,117,199)" stroke-width="1" opacity="1" d="M 104.5 6 L 149 6.5 L 104.5 7 L 103 8.5 L 102.5 140 L 102 8.5 L 104.5 6 Z " /><path fill="rgb(9,117,199)" stroke="rgb(9,117,199)" stroke-width="1" opacity="1" d="M 203.5 6 L 243.5 6 L 246.5 7 L 249.5 6 L 250.5 8 L 247.5 7 L 243.5 8 L 242.5 7 L 203.5 7 L 203.5 6 Z " /><path fill="rgb(9,117,199)" stroke="rgb(9,117,199)" stroke-width="1" opacity="1" d="M 1.5 7 L 3 8.5 L 3 132.5 L 3 134.5 L 2 139.5 L 5.5 142 L 9.5 141 L 11.5 141 L 48.5 141 L 49 143 L 46.5 142 L 12.5 142 L 9.5 143 L 6.5 142 L 3.5 143 L 1 138.5 L 2 135.5 L 1 132.5 L 2 131.5 L 2 10.5 L 1.5 7 Z " /><path fill="rgb(9,117,199)" stroke="rgb(9,117,199)" stroke-width="1" opacity="1" d="M 143.5 10 L 146 10.5 L 143.5 11 L 143.5 10 Z " /><path fill="rgb(9,117,199)" stroke="rgb(9,117,199)" stroke-width="1" opacity="1" d="M 149.5 10 L 151 13.5 L 150 14.5 L 150 127.5 L 151 129.5 L 150 130.5 L 150 141.5 L 148.5 143 L 145 141.5 L 149 141 L 149.5 10 Z " /><path fill="rgb(9,117,199)" stroke="rgb(9,117,199)" stroke-width="1" opacity="1" d="M 202.5 12 L 203 14.5 L 202 14.5 L 202.5 12 Z " /><path fill="rgb(9,117,199)" stroke="rgb(9,117,199)" stroke-width="1" opacity="1" d="M 107.5 140 L 112 141 Q 113.1 143.7 110.5 143 L 106.5 142 L 103 143 Q 101.7 139.7 106.5 141 L 107.5 140 Z " /><path fill="rgb(9,117,199)" stroke="rgb(9,117,199)" stroke-width="1" opacity="1" d="M 206.5 140 L 207.5 141 L 247.5 141 L 249.5 142 L 251 141.5 Q 251.9 144.5 247.5 143 Q 246.3 140.8 241.5 142 L 239.5 142 L 206.5 142 L 203.5 143 L 204.5 141 L 206.5 140 Z " /><path fill="rgb(9,117,199)" stroke="rgb(9,117,199)" stroke-width="1" opacity="1" d="M 113.5 141 L 143 141.5 L 113.5 142 L 113.5 141 Z " /><path fill="rgb(0,174,151)" stroke="rgb(0,174,151)" stroke-width="1" opacity="1" d="M 52.5 144 L 100 144 L 100 273.5 L 101 275.5 L 98.5 281 L 98 278.5 L 99 276.5 L 98 275.5 L 97.5 145 L 97 274 L 65.5 274 L 62 272 L 62 145.5 L 59 145 L 59 271.5 L 63.5 277 L 94.5 277 L 96 278.5 L 59.5 279 L 57 278 L 56.5 276 L 55 276.5 L 56 273.5 L 55 272.5 L 55 145 Q 51.7 145.8 52.5 144 Z " /><path fill="rgb(0,174,151)" stroke="rgb(0,174,151)" stroke-width="1" opacity="1" d="M 153.5 144 L 201 144 L 201 271.5 Q 203.5 273 202 278.5 L 200.5 281 L 200 276 L 195.5 277 L 192 276 L 191.5 274 L 161 274 L 161.5 277 L 190.5 277 L 191.5 279 L 160.5 279 L 155.5 276 L 153.5 281 L 152 279.5 L 152 145.5 L 153.5 144 Z M 154 145 L 154 272 L 153 273 Q 152 275 159 274 Q 162 272 158 271 L 158 146 L 154 145 Z M 193 145 L 192 273 L 194 273 L 193 271 L 193 145 Z M 196 145 L 196 273 L 199 275 Q 203 273 200 271 L 198 271 L 198 146 L 196 145 Z " /><path fill="rgb(0,174,151)" stroke="rgb(0,174,151)" stroke-width="1" opacity="1" d="M 52.5 272 Q 55.3 273.3 54 278.5 L 53.5 281 L 52 279.5 L 52.5 272 Z " /><path fill="rgb(247,254,254)" stroke="rgb(247,254,254)" stroke-width="1" opacity="1" d="M 4.5 0 L 3.5 2 L 2 1.5 L 4.5 0 Z " /><path fill="rgb(247,254,254)" stroke="rgb(247,254,254)" stroke-width="1" opacity="1" d="M 10.5 0 L 13 0.5 Q 10.9 3.8 10.5 0 Z " /><path fill="rgb(247,254,254)" stroke="rgb(247,254,254)" stroke-width="1" opacity="1" d="M 146 0 Q 149 -1 148 2 Q 145 3 146 0 Z " /><path fill="rgb(247,254,254)" stroke="rgb(247,254,254)" stroke-width="1" opacity="1" d="M 200.5 0 Q 202.8 -0.8 202 1.5 L 200.5 0 Z " /><path fill="rgb(247,254,254)" stroke="rgb(247,254,254)" stroke-width="1" opacity="1" d="M 48.5 2 L 54 3.5 L 53.5 6 Q 50.5 6.7 52 3 L 48.5 3 L 47.5 4 L 16.5 4 L 16.5 3 L 47.5 3 L 48.5 2 Z " /><path fill="rgb(247,254,254)" stroke="rgb(247,254,254)" stroke-width="1" opacity="1" d="M 100.5 2 L 102 2.5 L 99 4.5 Q 99.8 6.8 97.5 6 L 97.5 3 L 100.5 2 Z " /><path fill="rgb(247,254,254)" stroke="rgb(247,254,254)" stroke-width="1" opacity="1" d="M 2.5 3 L 7 3.5 L 2.5 4 L 2.5 3 Z " /><path fill="rgb(247,254,254)" stroke="rgb(247,254,254)" stroke-width="1" opacity="1" d="M 106.5 3 L 145 3.5 L 106.5 4 L 106.5 3 Z " /><path fill="rgb(247,254,254)" stroke="rgb(247,254,254)" stroke-width="1" opacity="1" d="M 148.5 3 L 152 3.5 L 148.5 4 L 148.5 3 Z " /><path fill="rgb(247,254,254)" stroke="rgb(247,254,254)" stroke-width="1" opacity="1" d="M 202.5 3 L 206 3.5 Q 201.3 3.3 200 6.5 L 201 9.5 L 200 9.5 L 199 6.5 L 200 4 L 202.5 3 Z " /><path fill="rgb(247,254,254)" stroke="rgb(247,254,254)" stroke-width="1" opacity="1" d="M 207.5 3 L 240 3.5 L 207.5 4 L 207.5 3 Z " /><path fill="rgb(247,254,254)" stroke="rgb(247,254,254)" stroke-width="1" opacity="1" d="M 253.5 5 L 255 7.5 L 254 7.5 L 253.5 5 Z " /><path fill="rgb(247,254,254)" stroke="rgb(247,254,254)" stroke-width="1" opacity="1" d="M 99.5 10 L 100 128.5 L 99 128.5 L 99.5 10 Z " /><path fill="rgb(247,254,254)" stroke="rgb(247,254,254)" stroke-width="1" opacity="1" d="M 200.5 12 L 201 128.5 L 200 128.5 L 200.5 12 Z " /><path fill="rgb(247,254,254)" stroke="rgb(247,254,254)" stroke-width="1" opacity="1" d="M 253.5 12 L 255 15.5 L 254 16.5 L 254 129.5 L 255 131.5 L 254 136.5 L 256 139.5 L 255 142 L 253 141.5 L 254 137.5 L 253 132.5 L 254 130.5 L 253 129.5 L 253.5 12 Z " /><path fill="rgb(247,254,254)" stroke="rgb(247,254,254)" stroke-width="1" opacity="1" d="M 52.5 127 L 53 130.5 L 52 130.5 L 52.5 127 Z " /><path fill="rgb(247,254,254)" stroke="rgb(247,254,254)" stroke-width="1" opacity="1" d="M 56 132 Q 59 131 58 134 Q 55 135 56 132 Z " /><path fill="rgb(247,254,254)" stroke="rgb(247,254,254)" stroke-width="1" opacity="1" d="M 200.5 132 L 201 135.5 L 200 135.5 L 200.5 132 Z " /><path fill="rgb(247,254,254)" stroke="rgb(247,254,254)" stroke-width="1" opacity="1" d="M 62 136 Q 65 135 64 138 Q 61 139 62 136 Z " /><path fill="rgb(247,254,254)" stroke="rgb(247,254,254)" stroke-width="1" opacity="1" d="M 194 136 Q 197 135 196 138 Q 193 139 194 136 Z " /><path fill="rgb(247,254,254)" stroke="rgb(247,254,254)" stroke-width="1" opacity="1" d="M 98.5 137 L 100 139.5 L 98 140.5 L 99 138.5 L 98.5 137 Z " /><path fill="rgb(247,254,254)" stroke="rgb(247,254,254)" stroke-width="1" opacity="1" d="M 53 139 L 55 139.5 L 53 140.5 L 53 139 Z " /><path fill="rgb(247,254,254)" stroke="rgb(247,254,254)" stroke-width="1" opacity="1" d="M 59.5 141 L 62 141.5 L 59.5 142 L 59.5 141 Z " /><path fill="rgb(247,254,254)" stroke="rgb(247,254,254)" stroke-width="1" opacity="1" d="M 158.5 141 L 161 141.5 L 158.5 142 L 158.5 141 Z " /><path fill="rgb(247,254,254)" stroke="rgb(247,254,254)" stroke-width="1" opacity="1" d="M 191.5 141 L 195 141.5 L 191.5 142 L 191.5 141 Z " /><path fill="rgb(247,254,254)" stroke="rgb(247,254,254)" stroke-width="1" opacity="1" d="M 149.5 145 L 150 282 L 154 283.5 L 152.5 284 L 149 281.5 L 149.5 145 Z " /><path fill="rgb(247,254,254)" stroke="rgb(247,254,254)" stroke-width="1" opacity="1" d="M 207.5 280 L 208 283.5 L 206 282.5 L 207.5 280 Z " /><path fill="rgb(247,254,254)" stroke="rgb(247,254,254)" stroke-width="1" opacity="1" d="M 49.5 281 L 50.5 283 L 49.5 281 Z " /><path fill="rgb(255,255,255)" stroke="rgb(255,255,255)" stroke-width="1" opacity="1" d="M 14.5 0 L 47.5 0 L 48 3 L 17.5 3 L 16.5 2 L 12.5 3 L 14.5 0 Z " /><path fill="rgb(255,255,255)" stroke="rgb(255,255,255)" stroke-width="1" opacity="1" d="M 55.5 0 L 57 0.5 L 55 1.5 L 55.5 3 Q 53.3 3.8 54 1.5 L 55.5 0 Z " /><path fill="rgb(255,255,255)" stroke="rgb(255,255,255)" stroke-width="1" opacity="1" d="M 60 0 L 94.5 0 L 98 2.5 L 96 6.5 Q 94.9 9.8 97.5 9 L 99 8.5 L 97.5 14 L 96 13.5 Q 94.9 16.8 97.5 16 L 99 15.5 L 99 127.5 L 98.5 128 L 64.5 128 L 62.5 127 L 61 127.5 L 61 17.5 L 62.5 15 L 64 15.5 L 63.5 12 L 62.5 14 L 60.5 11 Q 57.5 11.5 58 15.5 L 60 17.5 L 60 128 Q 57 127 58 130 L 60 130.5 Q 58.8 133.3 57.5 131 L 53 132 L 53.5 8 L 54 13 Q 57.3 14.3 56 9.5 Q 58.3 8.3 57 3.5 L 58.5 2 Q 61.1 2.7 60 0 Z M 60 5 L 58 7 Q 57 9 60 8 L 60 5 Z M 58 16 L 57 128 L 58 128 L 58 16 Z " /><path fill="rgb(255,255,255)" stroke="rgb(255,255,255)" stroke-width="1" opacity="1" d="M 106.5 0 L 110 1.5 L 104.5 3 L 106.5 0 Z " /><path fill="rgb(255,255,255)" stroke="rgb(255,255,255)" stroke-width="1" opacity="1" d="M 113.5 0 L 144.5 0 L 146 1.5 L 142.5 3 L 111.5 3 L 113.5 0 Z " /><path fill="rgb(255,255,255)" stroke="rgb(255,255,255)" stroke-width="1" opacity="1" d="M 156.5 0 L 157 2 Q 161.3 3 160.5 0 L 194 0 L 193 3.5 L 194 6 Q 189.5 4.3 191 9.5 L 193.5 11 L 196 10.5 L 198.5 7 L 200 9.5 L 197 10.5 L 197.5 13 L 199.5 12 L 199 13.5 L 199 131.5 L 200 135.5 L 199 138.5 Q 201.3 139.8 198.5 141 L 195 140.5 L 198 138.5 L 197.5 136 L 159.5 136 L 158.5 137 Q 157 133.5 155.5 136 L 153 134.5 Q 152.2 131.9 155.5 133 L 159.5 135 L 161 130.5 L 160.5 129 L 191 128.5 L 158.5 128 L 156 127 L 156 130 Q 159 129 158 132 L 156 132 Q 157.1 129.3 154.5 130 L 153 130.5 L 153.5 13 Q 154.8 15.3 156 12.5 L 157 8 Q 153.3 6.5 154 9.5 L 153 9.5 Q 157 7 156.5 0 Z M 159 3 L 159 10 L 159 9 L 160 6 L 159 3 Z M 196 12 L 194 14 Q 191 13 192 16 Q 196 17 197 15 L 196 12 Z M 156 13 L 156 17 L 158 17 L 160 14 L 159 14 L 156 13 Z M 160 16 L 159 127 L 160 127 L 160 16 Z M 155 17 L 154 127 L 155 127 L 155 17 Z M 196 17 L 195 127 L 196 127 L 196 17 Z M 194 129 L 194 131 L 192 131 L 193 133 Q 192 135 196 134 L 197 131 L 194 129 Z " /><path fill="rgb(255,255,255)" stroke="rgb(255,255,255)" stroke-width="1" opacity="1" d="M 198.5 0 L 199.5 2 Q 196.7 2.7 198.5 0 Z " /><path fill="rgb(255,255,255)" stroke="rgb(255,255,255)" stroke-width="1" opacity="1" d="M 203.5 0 L 204 2.5 L 203 2.5 L 203.5 0 Z " /><path fill="rgb(255,255,255)" stroke="rgb(255,255,255)" stroke-width="1" opacity="1" d="M 207.5 0 L 241.5 0 L 242 3 L 239.5 2 L 238.5 3 L 209.5 3 L 207.5 0 Z " /><path fill="rgb(255,255,255)" stroke="rgb(255,255,255)" stroke-width="1" opacity="1" d="M 244 0 Q 247.8 -1.5 247 1.5 L 247.5 3 L 244 2 L 244 0 Z " /><path fill="rgb(255,255,255)" stroke="rgb(255,255,255)" stroke-width="1" opacity="1" d="M 256.5 0 L 257 9.5 L 256 9.5 L 255 4.5 L 256.5 0 Z " /><path fill="rgb(255,255,255)" stroke="rgb(255,255,255)" stroke-width="1" opacity="1" d="M 8 1 L 11 2.5 L 8 3 L 8 1 Z " /><path fill="rgb(255,255,255)" stroke="rgb(255,255,255)" stroke-width="1" opacity="1" d="M 154.5 2 L 155 5 L 153 4.5 L 154.5 2 Z " /><path fill="rgb(255,255,255)" stroke="rgb(255,255,255)" stroke-width="1" opacity="1" d="M 196.5 3 L 200 4 Q 201.1 6.7 198.5 6 L 196 5 L 196.5 3 Z " /><path fill="rgb(255,255,255)" stroke="rgb(255,255,255)" stroke-width="1" opacity="1" d="M 254.5 11 L 257 11.5 L 257 129.5 L 255 128.5 L 255 126.5 L 255 16.5 L 256 13.5 L 254.5 11 Z " /><path fill="rgb(255,255,255)" stroke="rgb(255,255,255)" stroke-width="1" opacity="1" d="M 65.5 129 L 95.5 129 L 96.5 130 L 98.5 129 L 98.5 130 L 96 131.5 Q 96.5 136 95.5 136 L 64 136 L 63.5 134 L 61 135.5 Q 60 131 62.5 130 L 65.5 129 Z " /><path fill="rgb(255,255,255)" stroke="rgb(255,255,255)" stroke-width="1" opacity="1" d="M 255.5 131 L 257 131.5 L 257 137 Q 253.7 138.3 255 133.5 L 255.5 131 Z " /><path fill="rgb(255,255,255)" stroke="rgb(255,255,255)" stroke-width="1" opacity="1" d="M 53 134 L 55 134.5 L 53.5 137 L 53 134 Z " /><path fill="rgb(255,255,255)" stroke="rgb(255,255,255)" stroke-width="1" opacity="1" d="M 59.5 134 L 58.5 136 L 59.5 134 Z " /><path fill="rgb(255,255,255)" stroke="rgb(255,255,255)" stroke-width="1" opacity="1" d="M 56.5 137 Q 58.8 136.3 58 138.5 L 59.5 141 L 56.5 139 Q 55.2 141.3 54 138.5 L 56.5 137 Z " /><path fill="rgb(255,255,255)" stroke="rgb(255,255,255)" stroke-width="1" opacity="1" d="M 65.5 137 L 95.5 137 L 99 138 L 98.5 140 Q 97 137.5 95.5 141 L 61 140.5 L 62.5 139 L 96 138.5 L 65.5 138 L 65.5 137 Z " /><path fill="rgb(255,255,255)" stroke="rgb(255,255,255)" stroke-width="1" opacity="1" d="M 160.5 137 L 191 137.5 L 160.5 138 L 160.5 137 Z " /><path fill="rgb(255,255,255)" stroke="rgb(255,255,255)" stroke-width="1" opacity="1" d="M 256.5 138 L 257 141.5 L 256 141.5 L 256.5 138 Z " /><path fill="rgb(255,255,255)" stroke="rgb(255,255,255)" stroke-width="1" opacity="1" d="M 161.5 139 L 190.5 139 L 192 140.5 L 160.5 141 L 161.5 139 Z " /><path fill="rgb(255,255,255)" stroke="rgb(255,255,255)" stroke-width="1" opacity="1" d="M 253.5 144 L 255.5 145 L 257 144.5 L 257 284 L 209.5 284 L 208 280 L 206 280 Q 207.1 282.7 204.5 282 L 204.5 280 Q 201.5 280.9 203 276.5 L 205 277.5 Q 202.8 278.8 205.5 280 L 206.5 277 L 208 277 L 208 272 L 206 271.5 L 206 145 L 252.5 145 L 253.5 144 Z " /><path fill="rgb(255,255,255)" stroke="rgb(255,255,255)" stroke-width="1" opacity="1" d="M 0 145 L 49 145 L 49 273.5 L 48 276.5 L 49 279.5 L 47 284 L 0 284 L 0 145 Z " /><path fill="rgb(255,255,255)" stroke="rgb(255,255,255)" stroke-width="1" opacity="1" d="M 103 145 L 143.5 145 L 144 145.5 L 144 272.5 L 145 272.5 L 145.5 145 L 146 276 Q 150.1 274.7 149 278 L 146.5 277 L 145 277.5 L 144.5 276 L 143 279.5 L 144 281.5 L 143 284 L 109.5 284 L 109 281 L 107.5 281 L 108 282.5 Q 108.7 285.1 106 284 L 105.5 280 L 104 280.5 L 103 276.5 L 104 274.5 L 103 273.5 L 103 145 Z M 110 272 L 106 273 L 105 279 L 108 280 L 107 276 L 112 273 L 110 272 Z " /><path fill="rgb(255,255,255)" stroke="rgb(255,255,255)" stroke-width="1" opacity="1" d="M 147 145 L 149 145.5 L 149 272 L 147 271.5 L 147 145 Z " /><path fill="rgb(255,255,255)" stroke="rgb(255,255,255)" stroke-width="1" opacity="1" d="M 203 145 L 205 145.5 L 205 274 L 203 273.5 L 203 145 Z " /><path fill="rgb(255,255,255)" stroke="rgb(255,255,255)" stroke-width="1" opacity="1" d="M 147.5 280 L 149.5 283 L 147 282 L 147.5 280 Z " /><path fill="rgb(255,255,255)" stroke="rgb(255,255,255)" stroke-width="1" opacity="1" d="M 102 282 Q 105.7 280.5 105 283.5 L 102 283.5 L 102 282 Z " /><path fill="rgb(255,255,255)" stroke="rgb(255,255,255)" stroke-width="1" opacity="1" d="M 55.5 283 L 61 283.5 L 55.5 284 L 55.5 283 Z " /><path fill="rgb(255,255,255)" stroke="rgb(255,255,255)" stroke-width="1" opacity="1" d="M 65.5 283 L 99 283.5 L 65.5 284 L 65.5 283 Z " /><path fill="rgb(255,255,255)" stroke="rgb(255,255,255)" stroke-width="1" opacity="1" d="M 154.5 283 L 160 283.5 L 154.5 284 L 154.5 283 Z " /><path fill="rgb(255,255,255)" stroke="rgb(255,255,255)" stroke-width="1" opacity="1" d="M 161.5 283 L 192 283.5 L 161.5 284 L 161.5 283 Z " /><path fill="rgb(255,255,255)" stroke="rgb(255,255,255)" stroke-width="1" opacity="1" d="M 194.5 283 L 199 283.5 L 194.5 284 L 194.5 283 Z " /><path fill="rgb(56,170,159)" stroke="rgb(56,170,159)" stroke-width="1" opacity="1" d="M 51 143 L 101 143 L 101 273.5 L 100 273.5 L 100 144 L 52 144 L 52 279.5 L 53 280.5 L 51 281 L 51 143 Z " /><path fill="rgb(56,170,159)" stroke="rgb(56,170,159)" stroke-width="1" opacity="1" d="M 151 143 L 202 143 L 202 271.5 L 201 271.5 L 201 144 L 153.5 144 L 152 145.5 L 152 279.5 L 152.5 281 L 151 280.5 L 151 143 Z " /><path fill="rgb(56,170,159)" stroke="rgb(56,170,159)" stroke-width="1" opacity="1" d="M 100.5 276 L 101 281 L 99 280.5 L 100.5 276 Z " /><path fill="rgb(56,170,159)" stroke="rgb(56,170,159)" stroke-width="1" opacity="1" d="M 56.5 280 L 61 280.5 L 56.5 281 L 56.5 280 Z " /><path fill="rgb(56,170,159)" stroke="rgb(56,170,159)" stroke-width="1" opacity="1" d="M 65.5 280 L 96 280.5 L 65.5 281 L 65.5 280 Z " /><path fill="rgb(56,170,159)" stroke="rgb(56,170,159)" stroke-width="1" opacity="1" d="M 159.5 280 L 192 280.5 L 159.5 281 L 159.5 280 Z " /><path fill="rgb(56,170,159)" stroke="rgb(56,170,159)" stroke-width="1" opacity="1" d="M 194.5 280 L 199 280.5 L 194.5 281 L 194.5 280 Z " /><path fill="rgb(238,254,254)" stroke="rgb(238,254,254)" stroke-width="1" opacity="1" d="M 10.5 3 L 13 3.5 L 10.5 4 L 10.5 3 Z " /><path fill="rgb(238,254,254)" stroke="rgb(238,254,254)" stroke-width="1" opacity="1" d="M 48.5 3 Q 52.9 1.5 52 4.5 L 50.5 4 Q 47.5 4.5 48.5 3 Z " /><path fill="rgb(238,254,254)" stroke="rgb(238,254,254)" stroke-width="1" opacity="1" d="M 100.5 3 L 106 3.5 Q 101.4 2.9 100 5.5 L 99.5 10 L 99 4.5 L 100.5 3 Z " /><path fill="rgb(238,254,254)" stroke="rgb(238,254,254)" stroke-width="1" opacity="1" d="M 240.5 3 L 251 3.5 L 240.5 4 L 240.5 3 Z " /><path fill="rgb(238,254,254)" stroke="rgb(238,254,254)" stroke-width="1" opacity="1" d="M 151.5 4 L 153 5.5 L 153 141 L 158 141.5 L 153.5 142 L 152 140.5 L 152 5.5 L 151.5 4 Z " /><path fill="rgb(238,254,254)" stroke="rgb(238,254,254)" stroke-width="1" opacity="1" d="M 52.5 6 L 53 126.5 L 52 126.5 L 52.5 6 Z " /><path fill="rgb(238,254,254)" stroke="rgb(238,254,254)" stroke-width="1" opacity="1" d="M 253.5 6 L 254 8.5 L 253 8.5 L 253.5 6 Z " /><path fill="rgb(238,254,254)" stroke="rgb(238,254,254)" stroke-width="1" opacity="1" d="M 99.5 129 L 100 137.5 L 99 137.5 L 99.5 129 Z " /><path fill="rgb(238,254,254)" stroke="rgb(238,254,254)" stroke-width="1" opacity="1" d="M 200.5 129 L 201 131.5 L 200 131.5 L 200.5 129 Z " /><path fill="rgb(238,254,254)" stroke="rgb(238,254,254)" stroke-width="1" opacity="1" d="M 52.5 131 L 53 133.5 L 52 133.5 L 52.5 131 Z " /><path fill="rgb(238,254,254)" stroke="rgb(238,254,254)" stroke-width="1" opacity="1" d="M 52.5 136 L 53 141 L 59 141.5 L 52 142 L 52.5 136 Z " /><path fill="rgb(238,254,254)" stroke="rgb(238,254,254)" stroke-width="1" opacity="1" d="M 253.5 137 L 254 140.5 L 253 140.5 L 253.5 137 Z " /><path fill="rgb(238,254,254)" stroke="rgb(238,254,254)" stroke-width="1" opacity="1" d="M 200.5 139 L 201 140.5 L 199 141.5 L 200.5 139 Z " /><path fill="rgb(238,254,254)" stroke="rgb(238,254,254)" stroke-width="1" opacity="1" d="M 99.5 140 L 98.5 142 L 62 141.5 L 98.5 141 L 99.5 140 Z " /><path fill="rgb(238,254,254)" stroke="rgb(238,254,254)" stroke-width="1" opacity="1" d="M 161.5 141 L 191 141.5 L 161.5 142 L 161.5 141 Z " /><path fill="rgb(238,254,254)" stroke="rgb(238,254,254)" stroke-width="1" opacity="1" d="M 0.5 144 L 48.5 144 L 50 145.5 L 49.5 281 L 49 145 L 0.5 145 L 0.5 144 Z " /><path fill="rgb(238,254,254)" stroke="rgb(238,254,254)" stroke-width="1" opacity="1" d="M 103.5 144 L 149 144.5 L 103 145 L 103 281.5 L 101.5 283 L 102 281.5 L 102 145.5 L 103.5 144 Z " /><path fill="rgb(238,254,254)" stroke="rgb(238,254,254)" stroke-width="1" opacity="1" d="M 203.5 144 L 252 144.5 L 203.5 145 L 203.5 144 Z " /><path fill="rgb(238,254,254)" stroke="rgb(238,254,254)" stroke-width="1" opacity="1" d="M 202.5 281 L 201.5 283 L 202.5 281 Z " /><path fill="rgb(238,254,254)" stroke="rgb(238,254,254)" stroke-width="1" opacity="1" d="M 53.5 282 L 62 282.5 L 53.5 283 L 53.5 282 Z " /><path fill="rgb(238,254,254)" stroke="rgb(238,254,254)" stroke-width="1" opacity="1" d="M 64.5 282 L 99 282.5 L 64.5 283 L 64.5 282 Z " /><path fill="rgb(238,254,254)" stroke="rgb(238,254,254)" stroke-width="1" opacity="1" d="M 154.5 282 L 192 282.5 L 154.5 283 L 154.5 282 Z " /><path fill="rgb(238,254,254)" stroke="rgb(238,254,254)" stroke-width="1" opacity="1" d="M 194.5 282 L 200 282.5 L 194.5 283 L 194.5 282 Z " /><path fill="rgb(1,174,153)" stroke="rgb(1,174,153)" stroke-width="1" opacity="1" d="M 52 145 L 55 145.5 L 55 272.5 L 57 278 L 59.5 279 L 95.5 279 L 94.5 277 L 63.5 277 L 61 274.5 L 59 271.5 L 59 145 L 62 145.5 L 62 271.5 L 63.5 272 L 65.5 274 L 97 274 L 97.5 145 L 98 275.5 L 99 277.5 L 98 280 L 65.5 280 L 61.5 281 L 56.5 280 L 54.5 280 L 53 279.5 Q 55.3 278.2 54 273.5 L 52 271.5 L 52 145 Z " /><path fill="rgb(1,174,153)" stroke="rgb(1,174,153)" stroke-width="1" opacity="1" d="M 154 145 L 158 145.5 L 158 270.5 Q 161.8 272.3 158.5 274 Q 152.4 275.3 153 272.5 L 154 271.5 L 154 145 Z " /><path fill="rgb(1,174,153)" stroke="rgb(1,174,153)" stroke-width="1" opacity="1" d="M 192.5 145 L 193 270.5 L 194 273 L 192 272.5 L 192.5 145 Z " /><path fill="rgb(1,174,153)" stroke="rgb(1,174,153)" stroke-width="1" opacity="1" d="M 196 145 L 198 145.5 L 198 270.5 L 199.5 271 Q 203 273 198.5 275 L 196 272.5 L 196 145 Z " /><path fill="rgb(1,174,153)" stroke="rgb(1,174,153)" stroke-width="1" opacity="1" d="M 161 274 L 191.5 274 L 192 276 L 194.5 276 L 196.5 276 Q 202.2 274.2 200 280.5 L 198.5 280 L 192.5 281 L 191.5 280 L 159.5 280 L 154 281 Q 153 277.2 155.5 276 L 160.5 279 L 191.5 279 L 190.5 277 L 161.5 277 L 161 274 Z " /><path fill="rgb(252,255,254)" stroke="rgb(252,255,254)" stroke-width="1" opacity="1" d="M 2.5 0 L 4.5 1 L 6 0.5 Q 6.8 2.8 4.5 2 L 2.5 0 Z " /><path fill="rgb(252,255,254)" stroke="rgb(252,255,254)" stroke-width="1" opacity="1" d="M 9.5 0 L 11.5 2 L 14 0.5 Q 10.8 5.8 9.5 0 Z " /><path fill="rgb(252,255,254)" stroke="rgb(252,255,254)" stroke-width="1" opacity="1" d="M 52 0 Q 55.3 -1.1 54 3 Q 50.7 4.1 52 0 Z " /><path fill="rgb(252,255,254)" stroke="rgb(252,255,254)" stroke-width="1" opacity="1" d="M 109.5 0 L 111.5 1 L 113 0.5 L 110.5 2 L 109.5 0 Z " /><path fill="rgb(252,255,254)" stroke="rgb(252,255,254)" stroke-width="1" opacity="1" d="M 148.5 0 L 149 3 L 145.5 4 L 146.5 2 Q 149 2.7 148.5 0 Z " /><path fill="rgb(252,255,254)" stroke="rgb(252,255,254)" stroke-width="1" opacity="1" d="M 154.5 0 Q 157 1 156 5.5 Q 154 9 152 4.5 L 153.5 5 Q 156.1 5.8 155 2.5 L 154.5 0 Z " /><path fill="rgb(252,255,254)" stroke="rgb(252,255,254)" stroke-width="1" opacity="1" d="M 199.5 0 L 200.5 2 L 199.5 0 Z " /><path fill="rgb(252,255,254)" stroke="rgb(252,255,254)" stroke-width="1" opacity="1" d="M 204 0 L 206 0.5 L 204 1.5 L 204 0 Z " /><path fill="rgb(252,255,254)" stroke="rgb(252,255,254)" stroke-width="1" opacity="1" d="M 243.5 0 L 244 2 L 246 2.5 L 244.5 3 L 242 1.5 L 243.5 0 Z " /><path fill="rgb(252,255,254)" stroke="rgb(252,255,254)" stroke-width="1" opacity="1" d="M 158.5 3 L 160 6 Q 156.5 7.1 158.5 3 Z " /><path fill="rgb(252,255,254)" stroke="rgb(252,255,254)" stroke-width="1" opacity="1" d="M 193.5 3 L 199 6.5 L 195 9.5 L 193.5 3 Z " /><path fill="rgb(252,255,254)" stroke="rgb(252,255,254)" stroke-width="1" opacity="1" d="M 253.5 4 L 256 7.5 L 254 8.5 L 255 6.5 L 253.5 4 Z " /><path fill="rgb(252,255,254)" stroke="rgb(252,255,254)" stroke-width="1" opacity="1" d="M 59.5 5 L 60 8 Q 57.3 9.1 58 6.5 L 59.5 5 Z " /><path fill="rgb(252,255,254)" stroke="rgb(252,255,254)" stroke-width="1" opacity="1" d="M 253.5 11 L 256 15.5 L 255 16.5 L 255 129.5 L 255.5 131 L 254 129.5 L 254 16.5 L 255 14.5 L 253.5 11 Z " /><path fill="rgb(252,255,254)" stroke="rgb(252,255,254)" stroke-width="1" opacity="1" d="M 63.5 12 L 64 15.5 L 62 14.5 L 63.5 12 Z " /><path fill="rgb(252,255,254)" stroke="rgb(252,255,254)" stroke-width="1" opacity="1" d="M 96.5 13 L 98 16 Q 94.5 17.1 96.5 13 Z " /><path fill="rgb(252,255,254)" stroke="rgb(252,255,254)" stroke-width="1" opacity="1" d="M 156 13 Q 159.7 11.8 158 17 Q 154.3 18.2 156 13 Z " /><path fill="rgb(252,255,254)" stroke="rgb(252,255,254)" stroke-width="1" opacity="1" d="M 199.5 13 L 200 131.5 L 199 131.5 L 199.5 13 Z " /><path fill="rgb(252,255,254)" stroke="rgb(252,255,254)" stroke-width="1" opacity="1" d="M 192 14 Q 196.1 12.7 195 16 Q 190.9 17.3 192 14 Z " /><path fill="rgb(252,255,254)" stroke="rgb(252,255,254)" stroke-width="1" opacity="1" d="M 57.5 16 L 58 127.5 L 59 129.5 L 58 129.5 L 57 127.5 L 57.5 16 Z " /><path fill="rgb(252,255,254)" stroke="rgb(252,255,254)" stroke-width="1" opacity="1" d="M 62 127 L 64.5 128 L 95 128.5 L 65.5 129 L 62 130 L 62 127 Z " /><path fill="rgb(252,255,254)" stroke="rgb(252,255,254)" stroke-width="1" opacity="1" d="M 156 127 L 158.5 128 L 191 128.5 L 160.5 129 L 158 130 L 157.5 128 L 156.5 130 L 156 127 Z " /><path fill="rgb(252,255,254)" stroke="rgb(252,255,254)" stroke-width="1" opacity="1" d="M 195.5 129 L 197 132.5 L 194.5 134 L 193.5 132 Q 194.8 134.3 196 131.5 L 195.5 129 Z " /><path fill="rgb(252,255,254)" stroke="rgb(252,255,254)" stroke-width="1" opacity="1" d="M 97.5 130 L 99 130.5 L 97 131.5 L 99 132 L 98.5 137 L 96 131.5 L 97.5 130 Z " /><path fill="rgb(252,255,254)" stroke="rgb(252,255,254)" stroke-width="1" opacity="1" d="M 56.5 131 L 59 132.5 L 57.5 135 L 53 133.5 L 56.5 131 Z M 56 132 Q 55 135 58 134 Q 59 131 56 132 Z " /><path fill="rgb(252,255,254)" stroke="rgb(252,255,254)" stroke-width="1" opacity="1" d="M 156 132 Q 159 131 158 134 Q 155 135 156 132 Z " /><path fill="rgb(252,255,254)" stroke="rgb(252,255,254)" stroke-width="1" opacity="1" d="M 62.5 135 L 64.5 136 L 95 136.5 L 65.5 137 L 62.5 139 L 62.5 138 Q 65.1 138.7 64 136 L 62.5 135 Z " /><path fill="rgb(252,255,254)" stroke="rgb(252,255,254)" stroke-width="1" opacity="1" d="M 153.5 135 L 155.5 136 Q 156.8 133.7 158 136.5 L 157 141 L 153 139.5 L 153.5 135 Z " /><path fill="rgb(252,255,254)" stroke="rgb(252,255,254)" stroke-width="1" opacity="1" d="M 161.5 136 L 192 136.5 L 161.5 137 L 161.5 136 Z " /><path fill="rgb(252,255,254)" stroke="rgb(252,255,254)" stroke-width="1" opacity="1" d="M 196 136 L 198 136.5 L 196.5 139 L 196 136 Z " /><path fill="rgb(252,255,254)" stroke="rgb(252,255,254)" stroke-width="1" opacity="1" d="M 254.5 136 L 255.5 138 L 254.5 136 Z " /><path fill="rgb(252,255,254)" stroke="rgb(252,255,254)" stroke-width="1" opacity="1" d="M 54.5 140 L 58 140.5 L 54.5 141 L 54.5 140 Z " /><path fill="rgb(252,255,254)" stroke="rgb(252,255,254)" stroke-width="1" opacity="1" d="M 205.5 145 L 206 270.5 L 205 270.5 L 205.5 145 Z " /><path fill="rgb(252,255,254)" stroke="rgb(252,255,254)" stroke-width="1" opacity="1" d="M 109.5 272 L 108.5 274 L 109.5 272 Z " /><path fill="rgb(252,255,254)" stroke="rgb(252,255,254)" stroke-width="1" opacity="1" d="M 205.5 272 Q 209.3 271 208 274 L 205.5 272 Z " /><path fill="rgb(252,255,254)" stroke="rgb(252,255,254)" stroke-width="1" opacity="1" d="M 144.5 277 L 144 278.5 L 143.5 280 L 143 278.5 L 144.5 277 Z " /><path fill="rgb(252,255,254)" stroke="rgb(252,255,254)" stroke-width="1" opacity="1" d="M 148.5 278 L 149 280 L 147 279.5 L 148.5 278 Z " /><path fill="rgb(252,255,254)" stroke="rgb(252,255,254)" stroke-width="1" opacity="1" d="M 103.5 279 L 104 281 Q 107 279.8 106 283.5 L 105 283.5 L 103.5 279 Z " /><path fill="rgb(252,255,254)" stroke="rgb(252,255,254)" stroke-width="1" opacity="1" d="M 145.5 280 L 146 282 L 144 281.5 L 145.5 280 Z " /><path fill="rgb(252,255,254)" stroke="rgb(252,255,254)" stroke-width="1" opacity="1" d="M 108.5 281 L 109 283.5 L 108 283.5 L 108.5 281 Z " /></svg>